<svg width="24" height="26" viewBox="0 0 24 26" fill="none" xmlns="http://www.w3.org/2000/svg">
<path d="M8.1959 4.52061C8.41454 4.66474 8.53833 4.84167 8.57447 5.06144C8.67279 5.65929 8.21507 6.51414 8.03205 6.79084C7.83902 7.07725 7.8753 7.49907 8.11305 7.73131C8.21167 7.82761 8.33591 7.88062 8.46274 7.88062C8.63103 7.88062 8.78822 7.79046 8.89395 7.63358C9.05965 7.38815 9.87528 6.09812 9.66456 4.80541C9.56409 4.18966 9.24098 3.68597 8.72995 3.34878C8.51072 3.2042 8.38677 3.02737 8.35094 2.80804C8.25387 2.21367 8.71055 1.36513 8.89365 1.08986C9.08645 0.804346 9.05069 0.382975 8.81384 0.150286C8.71492 0.0533617 8.59038 0 8.46304 0C8.29541 0 8.13866 0.0895301 8.03264 0.245696C7.86708 0.489788 7.05175 1.77279 7.2607 3.06247C7.3605 3.67849 7.68384 4.18271 8.1959 4.52061Z" fill="#F9F9F9"/>
<path d="M11.8789 5.87025C12.0975 6.01446 12.2213 6.19137 12.2574 6.41121C12.3558 7.00901 11.8982 7.86371 11.7152 8.1403C11.6216 8.2789 11.5785 8.45296 11.5937 8.6304C11.6089 8.8082 11.6807 8.96809 11.7956 9.08024C11.8942 9.1768 12.0186 9.22998 12.1457 9.22998C12.3139 9.22998 12.4711 9.14001 12.5769 8.98297C12.7426 8.73747 13.5583 7.44736 13.3475 6.15512C13.2471 5.53941 12.924 5.03577 12.4128 4.69852C12.1937 4.55395 12.0698 4.37722 12.0341 4.15791C11.9369 3.56358 12.3935 2.71512 12.5766 2.43978C12.7694 2.15429 12.7337 1.73295 12.4968 1.50037C12.3979 1.40346 12.2734 1.3501 12.1462 1.3501C11.9784 1.3501 11.8215 1.43971 11.7158 1.59568C11.5502 1.83976 10.7347 3.12238 10.9437 4.41231C11.0434 5.02828 11.3667 5.53237 11.8789 5.87025Z" fill="#F9F9F9"/>
<path d="M20.8366 13.0467C20.7498 13.0467 20.6622 13.0534 20.5686 13.0671C20.4567 13.0833 20.3453 13.0379 20.265 12.9433C20.1848 12.8488 20.1444 12.7154 20.1556 12.5809C20.1782 12.3065 20.1937 12.0283 20.2016 11.7495H6.10352e-05C0.108085 15.5294 1.58674 18.8858 3.83985 21.0853C1.99085 21.5538 1.12784 22.1899 1.12784 23.0804C1.12784 23.9992 2.04653 24.6471 4.01888 25.1196C5.64865 25.5101 7.80855 25.7251 10.1008 25.7251C12.393 25.7251 14.5529 25.5101 16.1826 25.1196C18.1551 24.6471 19.0737 23.9991 19.0737 23.0804C19.0737 22.1911 18.2128 21.5554 16.3688 21.0871C17.2081 20.2673 17.9489 19.2773 18.5552 18.1378C18.6177 18.0204 18.7223 17.945 18.8378 17.934C18.9539 17.9234 19.0664 17.9778 19.1435 18.0818C19.5891 18.6837 20.1903 19.0151 20.8366 19.0151C22.1226 19.0151 23.1688 17.6765 23.1688 16.0309C23.1688 14.3855 22.1226 13.0467 20.8366 13.0467ZM18.0008 23.0804C17.8114 23.271 17.1791 23.6542 15.6526 23.9818C14.1291 24.3087 12.1575 24.4887 10.1008 24.4887C8.04414 24.4887 6.07238 24.3087 4.54908 23.9818C3.0226 23.6542 2.39022 23.271 2.2009 23.0804C2.39022 22.8898 3.0226 22.5065 4.54908 22.179C4.70368 22.1458 4.8639 22.1146 5.02731 22.0844C6.51936 23.1572 8.25279 23.7727 10.1008 23.7727C11.9187 23.7727 13.6642 23.176 15.1826 22.086C15.3432 22.1156 15.5006 22.1464 15.6526 22.179C17.1791 22.5065 17.8114 22.8898 18.0008 23.0804ZM21.5305 16.4395C21.3104 17.0397 20.8185 17.3598 20.4319 17.1546C20.0454 16.9493 19.9105 16.2965 20.1306 15.6963C20.3506 15.0963 20.8423 14.776 21.229 14.9813C21.6155 15.1866 21.7505 15.8395 21.5305 16.4395Z" fill="#F9F9F9"/>
</svg>
