<svg width="32" height="32" viewBox="0 0 32 32" fill="none" xmlns="http://www.w3.org/2000/svg">
<path d="M31.4996 19.7371H30.5211C29.3446 17.2151 29.3445 14.7534 30.5211 12.2141H31.4996C31.7759 12.2141 31.9996 11.9902 31.9996 11.7141C31.9996 11.438 31.7759 11.2141 31.4996 11.2141H12.9487V10.8425H28.9014C29.1777 10.8425 29.4014 10.6187 29.4014 10.3425C29.4014 10.0664 29.1777 9.84253 28.9014 9.84253H27.923C26.7463 7.32068 26.7468 4.85929 27.9231 2.31934H28.9014C29.1777 2.31934 29.4014 2.09549 29.4014 1.81934C29.4014 1.54324 29.1777 1.31934 28.9014 1.31934H2.62209C2.44044 1.31934 2.27299 1.41799 2.18459 1.57694C0.368194 4.85449 0.375994 7.89748 2.20705 10.6216C2.29984 10.7598 2.45559 10.8425 2.62209 10.8425H7.68705V11.2141H5.22024C5.03859 11.2141 4.87114 11.3127 4.78274 11.4717C2.96584 14.749 2.97364 17.792 4.80519 20.5161C4.89799 20.6543 5.05374 20.7371 5.22024 20.7371H31.4996C31.7759 20.7371 31.9996 20.5132 31.9996 20.2371C31.9996 19.9609 31.7759 19.7371 31.4996 19.7371ZM8.68705 5.82179H11.9487V14.4897L10.5244 13.844C10.3926 13.7844 10.2432 13.7844 10.1113 13.844L8.68705 14.4897V5.82179ZM2.89359 9.84253C1.45609 7.55423 1.46489 5.08814 2.92044 2.31934H26.8313C25.7888 4.82519 25.7882 7.35143 26.8298 9.84253H12.9487V5.82179H20.9717C21.2481 5.82179 21.4717 5.59794 21.4717 5.32179C21.4717 5.04569 21.2481 4.82179 20.9717 4.82179H6.05619C5.77979 4.82179 5.55619 5.04569 5.55619 5.32179C5.55619 5.59794 5.77979 5.82179 6.05619 5.82179H7.68705V9.84253H2.89359ZM5.51859 12.2141H7.68705V15.2654C7.68705 15.4353 7.77344 15.5935 7.91605 15.6855C8.05909 15.7778 8.23929 15.7913 8.39359 15.7207L10.3179 14.8484L12.2422 15.7207C12.3081 15.7507 12.3784 15.7654 12.4487 15.7654C12.5435 15.7654 12.6377 15.7385 12.7197 15.6855C12.8623 15.5935 12.9487 15.4353 12.9487 15.2654V12.2141H29.4293C28.3865 14.7195 28.3862 17.2456 29.4281 19.7371H5.49124C4.05374 17.4487 4.06255 14.9829 5.51859 12.2141Z" fill="#00DF5E"/>
<path d="M27.0959 22.1577H28.0743C28.3507 22.1577 28.5743 21.9338 28.5743 21.6577C28.5743 21.3816 28.3507 21.1577 28.0743 21.1577H1.79505C1.6134 21.1577 1.44595 21.2563 1.35755 21.4153C-0.459801 24.6926 -0.452001 27.7356 1.38 30.4597C1.4733 30.5979 1.62855 30.6807 1.79505 30.6807H28.0743C28.3507 30.6807 28.5743 30.4568 28.5743 30.1807C28.5743 29.9045 28.3507 29.6807 28.0743 29.6807H27.0959C25.9194 27.1584 25.9193 24.697 27.0959 22.1577ZM2.06605 29.6807C0.628049 27.3923 0.636849 24.9263 2.0934 22.1577H26.0042C24.9613 24.6631 24.9612 27.1891 26.0029 29.6807H2.06605Z" fill="#00DF5E"/>
</svg>
