<svg width="35" height="35" viewBox="0 0 35 35" fill="none" xmlns="http://www.w3.org/2000/svg">
<path d="M34.4355 8.61829V26.3817C34.4355 27.712 33.3571 28.7903 32.0269 28.7903H2.97309C1.64288 28.7903 0.564514 27.712 0.564514 26.3817V8.61829C0.564514 7.28809 1.64288 6.20972 2.97309 6.20972H32.0269C33.3571 6.20972 34.4355 7.28809 34.4355 8.61829Z" fill="#259245"/>
<path d="M17.5 25.59L3.57526 17.5L17.5 9.40991L31.4247 17.5L17.5 25.59Z" fill="#FFE000"/>
<path d="M17.5 22.0937C20.037 22.0937 22.0937 20.037 22.0937 17.5C22.0937 14.963 20.037 12.9063 17.5 12.9063C14.963 12.9063 12.9063 14.963 12.9063 17.5C12.9063 20.037 14.963 22.0937 17.5 22.0937Z" fill="#103B9B"/>
<path d="M21.6037 20.1407C21.3945 20.1407 21.1936 20.024 21.0958 19.8234C20.4159 18.4281 19.2498 17.3348 17.8124 16.745C16.3751 16.1552 14.7775 16.1139 13.3137 16.629C13.0196 16.7321 12.6973 16.5779 12.5938 16.2838C12.4904 15.9897 12.645 15.6674 12.939 15.5639C14.6643 14.9569 16.5473 15.0054 18.2411 15.7004C19.9352 16.3957 21.3094 17.6842 22.1108 19.3286C22.2473 19.6089 22.1309 19.9469 21.8506 20.0834C21.7708 20.1223 21.6866 20.1407 21.6037 20.1407Z" fill="white"/>
<path d="M31.7083 17.012L17.7836 8.9219C17.6082 8.81998 17.3918 8.81998 17.2164 8.9219L3.2917 17.012C3.11772 17.113 3.01074 17.2989 3.01074 17.5C3.01074 17.7012 3.11779 17.8872 3.29163 17.9881L17.2164 26.0782C17.3041 26.1291 17.402 26.1546 17.5 26.1546C17.598 26.1546 17.6958 26.1292 17.7836 26.0782L27.5563 20.4003C27.8259 20.2437 27.9174 19.8982 27.7609 19.6286C27.6041 19.3589 27.2586 19.2675 26.9892 19.424L17.5 24.9373L4.69901 17.5L17.5 10.0628L30.301 17.5L28.9415 18.2899C28.6719 18.4465 28.5804 18.792 28.7369 19.0616C28.8935 19.3312 29.239 19.4227 29.5086 19.2662L31.7082 17.9882C31.8821 17.8871 31.9891 17.7012 31.9891 17.5001C31.9892 17.2989 31.8822 17.1129 31.7083 17.012Z" fill="#121B21"/>
<path d="M12.3416 17.5C12.3416 20.3445 14.6556 22.6585 17.5 22.6585C20.3445 22.6585 22.6585 20.3445 22.6585 17.5C22.6585 14.6556 20.3445 12.3416 17.5 12.3416C14.6556 12.3416 12.3416 14.6556 12.3416 17.5ZM21.5295 17.5C21.5295 19.7219 19.7218 21.5295 17.5 21.5295C15.2782 21.5295 13.4706 19.7218 13.4706 17.5C13.4706 15.2782 15.2782 13.4706 17.5 13.4706C19.7218 13.4706 21.5295 15.2781 21.5295 17.5Z" fill="#121B21"/>
<path d="M32.0143 5.6452H2.98566C1.33943 5.6452 0 6.98457 0 8.63087V26.3692C0 28.0155 1.33943 29.3548 2.98566 29.3548H32.0143C33.6606 29.3548 34.9999 28.0154 34.9999 26.3692V8.63087C35 6.98457 33.6606 5.6452 32.0143 5.6452ZM33.871 26.3692C33.871 27.393 33.0382 28.2258 32.0143 28.2258H2.98566C1.96185 28.2258 1.12902 27.393 1.12902 26.3692V8.63087C1.12902 7.60705 1.96185 6.77423 2.98566 6.77423H32.0143C33.0381 6.77423 33.8709 7.60705 33.8709 8.63087V26.3692H33.871Z" fill="#121B21"/>
</svg>
