<svg width="16" height="16" viewBox="0 0 16 16" fill="none" xmlns="http://www.w3.org/2000/svg">
<path d="M2.22566 0.810956C1.83514 0.420436 1.20197 0.420436 0.811452 0.810956C0.420922 1.20148 0.420922 1.83465 0.811452 2.22517L6.5862 7.9999L0.811512 13.7746C0.420982 14.1651 0.420982 14.7983 0.811512 15.1888C1.20203 15.5793 1.8352 15.5793 2.22572 15.1888L8.0004 9.4141L13.7751 15.1888C14.1656 15.5793 14.7988 15.5793 15.1893 15.1888C15.5798 14.7983 15.5798 14.1651 15.1893 13.7746L9.4146 7.9999L15.1893 2.22517C15.5799 1.83465 15.5799 1.20148 15.1893 0.810956C14.7988 0.420436 14.1657 0.420436 13.7751 0.810956L8.0004 6.5857L2.22566 0.810956Z" fill="#F9F9F9"/>
</svg>
