<svg width="30" height="30" viewBox="0 0 30 30" fill="none" xmlns="http://www.w3.org/2000/svg">
<circle cx="15.4609" cy="14.5391" r="14.5391" fill="#212121"/>
<path d="M10.9025 20.5442C10.6525 20.3775 10.4375 20.165 10.1859 19.8642C10.0552 19.7043 9.92578 19.5435 9.79752 19.3817C9.41169 18.9025 9.16836 18.6817 8.91669 18.5908C8.70861 18.5161 8.53872 18.3618 8.4444 18.1619C8.35009 17.9619 8.33907 17.7327 8.41377 17.5246C8.48848 17.3165 8.64278 17.1466 8.84274 17.0523C9.0427 16.958 9.27194 16.947 9.48002 17.0217C10.1067 17.2467 10.5309 17.6342 11.1025 18.345C11.0242 18.2475 11.3859 18.7008 11.4634 18.7942C11.6217 18.9833 11.7384 19.0983 11.83 19.1592C12 19.2733 12.3192 19.3225 12.7884 19.2758C12.8075 18.9575 12.8667 18.6483 12.9567 18.3633C10.4834 17.7583 9.08336 16.1633 9.08336 13.0333C9.08336 12 9.39169 11.07 9.96502 10.29C9.78336 9.545 9.81086 8.64417 10.2167 7.63C10.2627 7.51528 10.3338 7.41224 10.4246 7.32836C10.5154 7.24447 10.6237 7.18184 10.7417 7.145C10.8092 7.125 10.8475 7.11583 10.915 7.10583C11.5842 7.00333 12.5292 7.2475 13.7609 8.01917C14.4949 7.84757 15.2462 7.76144 16 7.7625C16.76 7.7625 17.515 7.84917 18.2367 8.01917C19.4675 7.24167 20.4142 6.9975 21.0884 7.10583C21.1592 7.11667 21.2192 7.13083 21.27 7.1475C21.3857 7.18565 21.4916 7.24869 21.5803 7.3322C21.669 7.41571 21.7383 7.51765 21.7834 7.63083C22.1892 8.64417 22.2167 9.545 22.035 10.2892C22.6109 11.0692 22.9167 11.9933 22.9167 13.0333C22.9167 16.1642 21.5217 17.7542 19.0484 18.36C19.1525 18.7058 19.2067 19.0925 19.2067 19.51C19.2068 20.2645 19.2034 21.0189 19.1967 21.7733C19.3838 21.8142 19.5512 21.9182 19.6706 22.068C19.7901 22.2177 19.8542 22.4041 19.8524 22.5956C19.8505 22.7871 19.7827 22.9722 19.6604 23.1196C19.5381 23.267 19.3688 23.3678 19.1809 23.405C18.2317 23.595 17.5284 22.9617 17.5284 22.1342L17.53 21.7625L17.5342 21.175C17.5384 20.585 17.54 20.06 17.54 19.51C17.54 18.9292 17.3875 18.55 17.1859 18.3767C16.635 17.9017 16.9142 16.9975 17.6359 16.9167C20.1084 16.6392 21.25 15.6817 21.25 13.0333C21.25 12.2375 20.99 11.58 20.4892 11.03C20.3837 10.9144 20.3129 10.7714 20.2849 10.6173C20.2568 10.4633 20.2728 10.3045 20.3309 10.1592C20.4692 9.81417 20.5284 9.36167 20.4109 8.81417L20.4025 8.81667C19.9934 8.9325 19.4775 9.18333 18.8542 9.6075C18.7537 9.67571 18.6395 9.72112 18.5196 9.74056C18.3996 9.75999 18.2769 9.75297 18.16 9.72C17.4566 9.52524 16.7299 9.42739 16 9.42917C15.2584 9.42917 14.5234 9.52833 13.84 9.72083C13.7235 9.75355 13.6013 9.7605 13.4819 9.74122C13.3624 9.72194 13.2486 9.67687 13.1484 9.60917C12.5217 9.18667 12.0034 8.93667 11.5917 8.82C11.4717 9.36417 11.5309 9.815 11.6684 10.1592C11.7265 10.3045 11.7426 10.4632 11.7148 10.6172C11.6869 10.7712 11.6162 10.9143 11.5109 11.03C11.0134 11.575 10.75 12.245 10.75 13.0333C10.75 15.6767 11.8925 16.64 14.3517 16.9167C15.0725 16.9975 15.3525 17.8975 14.805 18.3733C14.645 18.5133 14.4475 18.9833 14.4475 19.51V22.135C14.4475 22.9567 13.7517 23.5725 12.8142 23.4083C12.624 23.3749 12.4513 23.2765 12.3256 23.1299C12.1999 22.9833 12.1291 22.7976 12.1251 22.6045C12.1212 22.4115 12.1844 22.223 12.304 22.0714C12.4236 21.9198 12.5922 21.8145 12.7809 21.7733V20.9483C12.0225 20.9992 11.3959 20.875 10.9025 20.5442Z" fill="#00DF5E"/>
</svg>
