<svg width="20" height="20" viewBox="0 0 20 20" fill="none" xmlns="http://www.w3.org/2000/svg">
<g clip-path="url(#clip0_9:360)">
<path d="M0 3.1313C0 2.23918 0.72404 1.51514 1.61616 1.51514H18.3838C19.276 1.51514 20 2.23918 20 3.1313C20 4.02342 19.276 4.74746 18.3838 4.74746H1.61616C0.72404 4.74746 0 4.02342 0 3.1313ZM18.3838 8.38382H1.61616C0.72404 8.38382 0 9.10786 0 9.99998C0 10.8921 0.72404 11.6161 1.61616 11.6161H18.3838C19.276 11.6161 20 10.8921 20 9.99998C20 9.10786 19.2768 8.38382 18.3838 8.38382ZM18.3838 15.2525H1.61616C0.72404 15.2525 0 15.9766 0 16.8687C0 17.7608 0.72404 18.4848 1.61616 18.4848H18.3838C19.276 18.4848 20 17.7608 20 16.8687C20 15.9766 19.2768 15.2525 18.3838 15.2525Z" fill="#F9F9F9"/>
</g>
<defs>
<clipPath id="clip0_9:360">
<rect width="20" height="20" fill="white"/>
</clipPath>
</defs>
</svg>
