<svg width="25" height="25" viewBox="0 0 25 25" fill="none" xmlns="http://www.w3.org/2000/svg">
<g clip-path="url(#clip0_59:2)">
<path d="M0 3.875C0 2.771 0.896 1.875 2 1.875H22.75C23.854 1.875 24.75 2.771 24.75 3.875C24.75 4.979 23.854 5.875 22.75 5.875H2C0.896 5.875 0 4.979 0 3.875ZM22.75 10.375H2C0.896 10.375 0 11.271 0 12.375C0 13.479 0.896 14.375 2 14.375H22.75C23.854 14.375 24.75 13.479 24.75 12.375C24.75 11.271 23.855 10.375 22.75 10.375ZM22.75 18.875H2C0.896 18.875 0 19.771 0 20.875C0 21.979 0.896 22.875 2 22.875H22.75C23.854 22.875 24.75 21.979 24.75 20.875C24.75 19.771 23.855 18.875 22.75 18.875Z" fill="#F9F9F9"/>
</g>
<defs>
<clipPath id="clip0_59:2">
<rect width="24.75" height="24.75" fill="white"/>
</clipPath>
</defs>
</svg>
