<svg width="30" height="30" viewBox="0 0 30 30" fill="none" xmlns="http://www.w3.org/2000/svg">
<circle cx="15.1536" cy="14.5391" r="14.5391" fill="#212121"/>
<g clip-path="url(#clip0)">
<path d="M18.2803 8.28571H12.027C10.3001 8.28571 8.90027 9.68557 8.90027 11.4124V17.6658C8.90027 19.3926 10.3001 20.7924 12.027 20.7924H18.2803C20.0071 20.7924 21.407 19.3926 21.407 17.6658V11.4124C21.407 9.68557 20.0071 8.28571 18.2803 8.28571Z" stroke="#00DF5E" stroke-width="0.938005" stroke-linecap="round" stroke-linejoin="round"/>
<path d="M17.655 14.1451C17.7321 14.6656 17.6432 15.1971 17.4009 15.6641C17.1586 16.1311 16.7752 16.5098 16.3053 16.7463C15.8353 16.9829 15.3027 17.0652 14.7833 16.9816C14.2638 16.898 13.784 16.6528 13.412 16.2808C13.0399 15.9087 12.7947 15.4289 12.7111 14.9094C12.6275 14.39 12.7098 13.8574 12.9464 13.3875C13.1829 12.9175 13.5616 12.5341 14.0286 12.2918C14.4956 12.0495 15.0271 11.9606 15.5476 12.0377C16.0784 12.1165 16.5699 12.3638 16.9494 12.7433C17.3289 13.1228 17.5762 13.6143 17.655 14.1451Z" stroke="#00DF5E" stroke-width="0.938005" stroke-linecap="round" stroke-linejoin="round"/>
<path d="M18.593 11.0997H18.6001" stroke="#00DF5E" stroke-width="0.938005" stroke-linecap="round" stroke-linejoin="round"/>
</g>
<defs>
<clipPath id="clip0">
<rect width="15.0081" height="15.0081" fill="white" transform="translate(7.6496 7.03503)"/>
</clipPath>
</defs>
</svg>
