<svg width="30" height="30" viewBox="0 0 30 30" fill="none" xmlns="http://www.w3.org/2000/svg">
<circle cx="14.5391" cy="15.0081" r="14.5391" fill="#212121"/>
<path d="M9.64251 7.1499C8.69088 7.1499 8 7.80636 8 8.71016C8 9.61366 8.67717 10.2695 9.60961 10.2695C10.0933 10.2695 10.5101 10.1126 10.815 9.81593C11.1074 9.53111 11.2686 9.13846 11.2683 8.70316C11.2469 7.78869 10.5783 7.1499 9.64251 7.1499ZM10.3903 9.37941C10.2015 9.5631 9.93129 9.66027 9.60961 9.66027C9.02078 9.66027 8.60924 9.26975 8.60924 8.71016C8.60924 8.14144 9.02443 7.75914 9.64251 7.75914C10.2466 7.75914 10.6456 8.13535 10.6593 8.71047C10.659 8.97305 10.5637 9.21035 10.3903 9.37941Z" fill="#00DF5E"/>
<path d="M8.29211 20.8501H11.03V10.784H8.29211V20.8501ZM8.90135 11.3932H10.4208V20.2406H8.90135V11.3932Z" fill="#00DF5E"/>
<path d="M18.2498 10.784C16.9802 10.784 16.2028 11.2223 15.7525 11.6345L15.6669 10.784H12.5693V20.8498H15.603V15.5595C15.603 15.3317 15.6953 14.8586 15.7532 14.7337C16.1196 13.9444 16.614 13.9444 17.3628 13.9444C18.2251 13.9444 18.9538 14.7532 18.9538 15.7103V20.8504H22V15.1632C22 12.1542 20.0559 10.784 18.2498 10.784ZM21.3907 20.2409H19.563V15.71C19.563 14.4224 18.5553 13.3349 17.3628 13.3349C16.5976 13.3349 15.7306 13.3349 15.2003 14.4772C15.0909 14.7133 14.9934 15.279 14.9934 15.5595V20.2409H13.1785V11.3932H15.1159L15.2402 12.6251H15.7394L15.8287 12.481C16.0319 12.1539 16.6743 11.3929 18.2498 11.3929C19.7626 11.3929 21.3907 12.5724 21.3907 15.1623V20.2409Z" fill="#00DF5E"/>
</svg>
