<svg width="120" height="47" viewBox="0 0 120 47" fill="none" xmlns="http://www.w3.org/2000/svg">
<path fill-rule="evenodd" clip-rule="evenodd" d="M5 0C2.23858 0 0 2.23858 0 5V42C0 44.7614 2.23857 47 5 47H58.983H61.017H115C117.761 47 120 44.7614 120 42V5C120 2.23858 117.761 0 115 0H61.017H58.983H5Z" fill="#F9F9F9"/>
<path d="M29.7234 25.3653C29.7234 19.0867 32.6864 13.6527 37 11.0262C35.2353 9.95163 33.2449 9.34607 31.1383 9.34607C23.8822 9.34607 18 16.5181 18 25.3653C18 34.2125 23.8822 41.3845 31.1383 41.3845C33.2449 41.3845 35.2353 40.779 37 39.7045C32.6864 37.0779 29.7234 31.6439 29.7234 25.3653Z" fill="black"/>
</svg>
