<svg width="34" height="33" viewBox="0 0 34 33" fill="none" xmlns="http://www.w3.org/2000/svg">
<path d="M31.57 18.1912C30.4406 18.4836 29.2769 18.6316 28.1083 18.6315C24.55 18.6315 21.2083 17.2831 18.6983 14.8367C17.0501 13.2209 15.8651 11.2123 15.2615 9.01099C14.6579 6.80972 14.6568 4.4927 15.2583 2.29089C15.3334 2.01559 15.333 1.72588 15.2569 1.45082C15.1809 1.17576 15.032 0.925026 14.8252 0.72376C14.6184 0.522495 14.3609 0.37778 14.0785 0.304132C13.7962 0.230483 13.499 0.230491 13.2167 0.304155C10.3886 1.03871 7.80842 2.48521 5.73499 4.49854C-0.761679 10.8307 -0.761679 21.138 5.73499 27.4735C7.2792 28.987 9.11605 30.1869 11.1392 31.0039C13.1624 31.8209 15.3317 32.2387 17.5217 32.2332C19.711 32.2392 21.8798 31.8217 23.9025 31.0049C25.9251 30.1882 27.7614 28.9884 29.305 27.4751C31.3722 25.4537 32.8569 22.9376 33.61 20.1796C33.6848 19.9044 33.6842 19.6149 33.6082 19.34C33.5322 19.0652 33.3835 18.8145 33.177 18.6132C32.9705 18.412 32.7133 18.267 32.4313 18.193C32.1493 18.1189 31.8523 18.1183 31.57 18.1912V18.1912ZM26.95 25.1781C25.7149 26.3885 24.2459 27.3481 22.6278 28.0014C21.0097 28.6547 19.2747 28.9888 17.5233 28.9842C15.7713 28.9885 14.0358 28.6541 12.4172 28.0005C10.7986 27.347 9.32896 26.3871 8.09332 25.1765C2.89665 20.1097 2.89665 11.8639 8.09332 6.79717C9.0975 5.81952 10.2568 5.00605 11.5267 4.38808C11.3408 6.72579 11.6749 9.07506 12.5062 11.2753C13.3375 13.4756 14.6463 15.475 16.3433 17.1369C18.0447 18.7961 20.0954 20.0754 22.3538 20.8863C24.6121 21.6971 27.0242 22.0202 29.4233 21.8333C28.7859 23.0689 27.951 24.1979 26.95 25.1781V25.1781Z" fill="#F1C40F"/>
</svg>
