<svg width="36" height="36" viewBox="0 0 36 36" fill="none" xmlns="http://www.w3.org/2000/svg">
<g clip-path="url(#clip0_206_8)">
<path d="M18 25.953C22.3922 25.953 25.9529 22.3923 25.9529 18C25.9529 13.6078 22.3922 10.0471 18 10.0471C13.6077 10.0471 10.0471 13.6078 10.0471 18C10.0471 22.3923 13.6077 25.953 18 25.953Z" fill="#F1C40F"/>
<path d="M18 27.2533C12.8978 27.2533 8.7467 23.1023 8.7467 18C8.7467 12.8978 12.8978 8.7467 18 8.7467C23.1023 8.7467 27.2533 12.8978 27.2533 18C27.2533 23.1023 23.1023 27.2533 18 27.2533ZM18 11.3473C14.3318 11.3473 11.3475 14.3317 11.3475 17.9998C11.3475 21.668 14.3318 24.6524 18 24.6524C21.6682 24.6524 24.6525 21.668 24.6525 17.9998C24.6525 14.3317 21.6682 11.3473 18 11.3473Z" fill="#F1C40F"/>
<path d="M17.9999 6.82885C17.2818 6.82885 16.6995 6.24661 16.6995 5.52844V1.3004C16.6995 0.582234 17.2818 0 17.9999 0C18.7181 0 19.3003 0.582234 19.3003 1.3004V5.52844C19.3003 6.24661 18.7181 6.82885 17.9999 6.82885Z" fill="#F1C40F"/>
<path d="M17.9999 36C17.2818 36 16.6995 35.4178 16.6995 34.6996V30.4715C16.6995 29.7534 17.2818 29.1711 17.9999 29.1711C18.7181 29.1711 19.3003 29.7534 19.3003 30.4715V34.6996C19.3003 35.4179 18.7181 36 17.9999 36Z" fill="#F1C40F"/>
<path d="M34.6996 19.3004H30.4716C29.7534 19.3004 29.1712 18.7182 29.1712 18C29.1712 17.2818 29.7534 16.6996 30.4716 16.6996H34.6996C35.4178 16.6996 36.0001 17.2818 36.0001 18C36.0001 18.7182 35.418 19.3004 34.6996 19.3004Z" fill="#F1C40F"/>
<path d="M5.52844 19.3004H1.3004C0.582234 19.3004 0 18.7182 0 18C0 17.2818 0.582234 16.6996 1.3004 16.6996H5.52844C6.24661 16.6996 6.82885 17.2818 6.82885 18C6.82885 18.7182 6.24661 19.3004 5.52844 19.3004Z" fill="#F1C40F"/>
<path d="M26.8188 10.4816C26.4861 10.4816 26.1532 10.3547 25.8993 10.1007C25.3915 9.59282 25.3915 8.7694 25.8993 8.26173L28.889 5.27219C29.3969 4.76434 30.2203 4.76416 30.728 5.27219C31.2358 5.78004 31.2358 6.60345 30.728 7.11113L27.7383 10.1007C27.4844 10.3547 27.1515 10.4816 26.8188 10.4816Z" fill="#F1C40F"/>
<path d="M6.19147 31.1089C5.85874 31.1089 5.52584 30.982 5.272 30.728C4.76415 30.2201 4.76415 29.3967 5.272 28.889L8.26171 25.8993C8.76956 25.3915 9.59298 25.3915 10.1007 25.8993C10.6085 26.4072 10.6085 27.2306 10.1007 27.7383L7.11094 30.728C6.85711 30.982 6.52438 31.1089 6.19147 31.1089Z" fill="#F1C40F"/>
<path d="M29.8083 31.1089C29.4756 31.1089 29.1427 30.982 28.8889 30.728L25.8991 27.7383C25.3913 27.2304 25.3913 26.407 25.8991 25.8993C26.407 25.3915 27.2304 25.3915 27.7381 25.8993L30.7278 28.889C31.2356 29.3969 31.2356 30.2203 30.7278 30.728C30.474 30.982 30.1412 31.1089 29.8083 31.1089Z" fill="#F1C40F"/>
<path d="M9.18119 10.4816C8.84846 10.4816 8.51555 10.3547 8.26171 10.1007L5.272 7.11113C4.76415 6.60328 4.76415 5.78004 5.272 5.27219C5.77985 4.76434 6.60327 4.76416 7.11094 5.27219L10.1007 8.26173C10.6085 8.76958 10.6085 9.59282 10.1007 10.1007C9.84682 10.3547 9.51409 10.4816 9.18119 10.4816Z" fill="#F1C40F"/>
</g>
<defs>
<clipPath id="clip0_206_8">
<rect width="36" height="36" fill="white"/>
</clipPath>
</defs>
</svg>
