<svg width="60" height="44" viewBox="0 0 60 44" fill="none" xmlns="http://www.w3.org/2000/svg">
<path d="M0 0H55C57.7614 0 60 2.23858 60 5V38C60 41.3137 57.3137 44 54 44H0V0Z" fill="#171717"/>
<g clip-path="url(#clip0)">
<path d="M32 29.0693C35.9042 29.0693 39.0692 25.9043 39.0692 22C39.0692 18.0958 35.9042 14.9308 32 14.9308C28.0957 14.9308 24.9307 18.0958 24.9307 22C24.9307 25.9043 28.0957 29.0693 32 29.0693Z" fill="#F9F9F9"/>
<path d="M32 30.2252C27.4646 30.2252 23.7748 26.5354 23.7748 22.0001C23.7748 17.4647 27.4646 13.7749 32 13.7749C36.5353 13.7749 40.2252 17.4647 40.2252 22.0001C40.2252 26.5354 36.5353 30.2252 32 30.2252ZM32 16.0866C28.7394 16.0866 26.0866 18.7393 26.0866 21.9999C26.0866 25.2605 28.7394 27.9133 32 27.9133C35.2606 27.9133 37.9133 25.2605 37.9133 21.9999C37.9133 18.7393 35.2606 16.0866 32 16.0866Z" fill="#F9F9F9"/>
<path d="M32 12.0701C31.3616 12.0701 30.8441 11.5525 30.8441 10.9142V7.15591C30.8441 6.51754 31.3616 6 32 6C32.6384 6 33.1559 6.51754 33.1559 7.15591V10.9142C33.1559 11.5525 32.6384 12.0701 32 12.0701Z" fill="#F9F9F9"/>
<path d="M32 38C31.3616 38 30.8441 37.4825 30.8441 36.8441V33.0858C30.8441 32.4475 31.3616 31.9299 32 31.9299C32.6384 31.9299 33.1559 32.4475 33.1559 33.0858V36.8441C33.1559 37.4826 32.6384 38 32 38Z" fill="#F9F9F9"/>
<path d="M46.8441 23.1559H43.0858C42.4475 23.1559 41.9299 22.6384 41.9299 22C41.9299 21.3617 42.4475 20.8441 43.0858 20.8441H46.8441C47.4825 20.8441 48 21.3617 48 22C48 22.6384 47.4826 23.1559 46.8441 23.1559Z" fill="#F9F9F9"/>
<path d="M20.9142 23.1559H17.1559C16.5175 23.1559 16 22.6384 16 22C16 21.3617 16.5175 20.8441 17.1559 20.8441H20.9142C21.5525 20.8441 22.0701 21.3617 22.0701 22C22.0701 22.6384 21.5525 23.1559 20.9142 23.1559Z" fill="#F9F9F9"/>
<path d="M39.8389 15.317C39.5432 15.317 39.2473 15.2042 39.0216 14.9784C38.5702 14.527 38.5702 13.795 39.0216 13.3438L41.6792 10.6864C42.1306 10.235 42.8625 10.2348 43.3138 10.6864C43.7652 11.1378 43.7652 11.8698 43.3138 12.321L40.6563 14.9784C40.4306 15.2042 40.1347 15.317 39.8389 15.317Z" fill="#F9F9F9"/>
<path d="M21.5035 33.6524C21.2078 33.6524 20.9119 33.5396 20.6862 33.3138C20.2348 32.8624 20.2348 32.1305 20.6862 31.6792L23.3437 29.0217C23.7952 28.5702 24.5271 28.5702 24.9784 29.0217C25.4298 29.4731 25.4298 30.205 24.9784 30.6563L22.3208 33.3138C22.0952 33.5396 21.7994 33.6524 21.5035 33.6524Z" fill="#F9F9F9"/>
<path d="M42.4963 33.6524C42.2006 33.6524 41.9046 33.5396 41.679 33.3138L39.0215 30.6563C38.5701 30.2049 38.5701 29.4729 39.0215 29.0217C39.4729 28.5702 40.2048 28.5702 40.6561 29.0217L43.3136 31.6792C43.765 32.1306 43.765 32.8625 43.3136 33.3138C43.088 33.5396 42.7922 33.6524 42.4963 33.6524Z" fill="#F9F9F9"/>
<path d="M24.1611 15.317C23.8653 15.317 23.5694 15.2042 23.3437 14.9784L20.6862 12.321C20.2348 11.8696 20.2348 11.1378 20.6862 10.6864C21.1376 10.235 21.8696 10.2348 22.3208 10.6864L24.9784 13.3438C25.4298 13.7952 25.4298 14.527 24.9784 14.9784C24.7527 15.2042 24.457 15.317 24.1611 15.317Z" fill="#F9F9F9"/>
</g>
<defs>
<clipPath id="clip0">
<rect width="32" height="32" fill="white" transform="translate(16 6)"/>
</clipPath>
</defs>
</svg>
