<svg width="24" height="24" viewBox="0 0 24 24" fill="none" xmlns="http://www.w3.org/2000/svg">
<path fill-rule="evenodd" clip-rule="evenodd" d="M12.596 2.04309C11.295 1.95109 10.293 3.02909 10.293 4.24909V5.30209C10.293 7.96809 8.48 9.08709 7.519 9.50209C7.35193 9.57084 7.17576 9.61497 6.996 9.63309C6.96632 9.19022 6.76947 8.77517 6.4453 8.47198C6.12113 8.16879 5.69386 8.00011 5.25 8.00009H3.75C3.28587 8.00009 2.84075 8.18446 2.51256 8.51265C2.18437 8.84084 2 9.28596 2 9.75009V20.2501C2 21.2171 2.784 22.0001 3.75 22.0001H5.25C5.68475 22.0002 6.10395 21.8384 6.42597 21.5463C6.74799 21.2543 6.94977 20.8528 6.992 20.4201C7.83 20.4801 8.659 20.7161 9.682 21.0061L10.284 21.1761C11.748 21.5821 13.497 22.0001 15.828 22.0001C18.016 22.0001 19.521 21.7961 20.411 20.6281C20.833 20.0741 21.061 19.3731 21.227 18.5781C21.375 17.8701 21.489 17.0081 21.623 15.9981L21.674 15.6081C21.993 13.2221 22.002 11.4281 21.451 10.2141C21.158 9.57009 20.708 9.08909 20.096 8.78309C19.506 8.48709 18.812 8.37909 18.06 8.37909H16.01L16.066 7.95009C16.091 7.77009 16.116 7.57809 16.142 7.37809C16.202 6.89509 16.259 6.37209 16.259 5.94009C16.259 4.69509 16.037 3.68709 15.339 2.99909C14.655 2.32409 13.671 2.11909 12.596 2.04309V2.04309ZM7 18.9181C8.059 18.9821 9.079 19.2731 10.118 19.5701L10.686 19.7301C12.092 20.1201 13.692 20.5001 15.828 20.5001C18.105 20.5001 18.832 20.2261 19.218 19.7191C19.434 19.4361 19.606 19.0011 19.758 18.2711C19.894 17.6211 20 16.8211 20.137 15.7941L20.187 15.4101C20.507 13.0101 20.44 11.6151 20.085 10.8351C19.925 10.4831 19.71 10.2671 19.425 10.1241C19.12 9.97109 18.685 9.87909 18.06 9.87909H15.69C15.009 9.87909 14.397 9.30909 14.479 8.55109C14.505 8.30809 14.544 8.01409 14.584 7.71709L14.654 7.19009C14.714 6.70809 14.759 6.26909 14.759 5.94009C14.759 4.81509 14.546 4.32309 14.286 4.06709C14.011 3.79709 13.512 3.61209 12.491 3.53909C12.14 3.51509 11.793 3.81309 11.793 4.24909V5.30209C11.793 8.85209 9.305 10.3651 8.113 10.8791C7.741 11.0391 7.359 11.1111 7 11.1391V18.9191V18.9181ZM3.75 20.5001C3.6837 20.5001 3.62011 20.4737 3.57322 20.4269C3.52634 20.38 3.5 20.3164 3.5 20.2501V9.75009C3.5 9.68378 3.52634 9.62019 3.57322 9.57331C3.62011 9.52643 3.6837 9.50009 3.75 9.50009H5.25C5.3163 9.50009 5.37989 9.52643 5.42678 9.57331C5.47366 9.62019 5.5 9.68378 5.5 9.75009V20.2501C5.5 20.3164 5.47366 20.38 5.42678 20.4269C5.37989 20.4737 5.3163 20.5001 5.25 20.5001H3.75Z" fill="#F9F9F9"/>
</svg>
