<svg width="27" height="27" viewBox="0 0 27 27" fill="none" xmlns="http://www.w3.org/2000/svg">
<g clip-path="url(#clip0)">
<path d="M24.9779 4.65521H2.0221C0.905291 4.65521 0 5.5605 0 6.67731V20.3228C0 21.4396 0.905291 22.3449 2.0221 22.3449H24.9779C26.0947 22.3449 27 21.4396 27 20.3228V6.67731C27 5.5605 26.0947 4.65521 24.9779 4.65521Z" fill="#F5F5F5"/>
<path d="M0.111206 6.01597H26.8887C26.6147 5.22406 25.8629 4.65521 24.9779 4.65521H2.02209C1.137 4.65521 0.385267 5.22406 0.111206 6.01597Z" fill="#FF4B55"/>
<path d="M27 10.0981H0V11.4588H27V10.0981Z" fill="#FF4B55"/>
<path d="M27 7.37653H0V8.73723H27V7.37653Z" fill="#FF4B55"/>
<path d="M0 13.7149C0 13.9719 0.208459 14.1804 0.465539 14.1804H27V12.8196H0V13.7149Z" fill="#FF4B55"/>
<path d="M27 18.263H0V19.6238H27V18.263Z" fill="#FF4B55"/>
<path d="M26.8888 20.9841H0.111206C0.385267 21.776 1.13705 22.3448 2.02209 22.3448H24.9779C25.863 22.3448 26.6147 21.776 26.8888 20.9841Z" fill="#FF4B55"/>
<path d="M27 15.5413H0V16.902H27V15.5413Z" fill="#FF4B55"/>
<path d="M0.465539 14.1805H12.1035C12.3606 14.1805 12.569 13.972 12.569 13.7149V5.12075C12.569 4.86362 12.3606 4.65521 12.1035 4.65521H2.0221C0.905291 4.65527 0 5.56056 0 6.67736V13.7149C0 13.9721 0.208459 14.1805 0.465539 14.1805Z" fill="#41479B"/>
<path d="M1.30722 5.72374L1.41026 6.03276L1.736 6.03524C1.77819 6.03561 1.79564 6.0894 1.76173 6.11445L1.4997 6.30793L1.59799 6.61848C1.61075 6.65867 1.56493 6.69199 1.5306 6.66742L1.26561 6.47805L1.00062 6.66747C0.966288 6.69205 0.920567 6.65872 0.933223 6.61853L1.03152 6.30798L0.769483 6.1145C0.735575 6.0894 0.75303 6.03561 0.795217 6.03529L1.12096 6.03281L1.224 5.72379C1.23729 5.68371 1.29382 5.68371 1.30722 5.72374Z" fill="#F5F5F5"/>
<path d="M1.30722 7.34015L1.41026 7.64918L1.736 7.65166C1.77819 7.65202 1.79564 7.70576 1.76173 7.73086L1.4997 7.9244L1.59799 8.23495C1.61075 8.27513 1.56493 8.30846 1.5306 8.28389L1.26561 8.09452L1.00062 8.28394C0.966288 8.30846 0.920567 8.27519 0.933223 8.235L1.03152 7.92445L0.769483 7.73091C0.735575 7.70581 0.75303 7.65208 0.795217 7.65171L1.12096 7.64923L1.224 7.34021C1.23729 7.30018 1.29382 7.30018 1.30722 7.34015Z" fill="#F5F5F5"/>
<path d="M1.30722 8.95671L1.41026 9.26573L1.736 9.26821C1.77819 9.26858 1.79564 9.32232 1.76173 9.34742L1.4997 9.54095L1.59799 9.85151C1.61075 9.89169 1.56493 9.92502 1.5306 9.90044L1.26561 9.71107L1.00062 9.9005C0.966288 9.92502 0.920567 9.8918 0.933223 9.85156L1.03152 9.54101L0.769483 9.34747C0.735575 9.32237 0.75303 9.26863 0.795217 9.26826L1.12096 9.26579L1.224 8.95676C1.23729 8.91668 1.29382 8.91668 1.30722 8.95671Z" fill="#F5F5F5"/>
<path d="M1.30722 10.5732L1.41026 10.8822L1.736 10.8847C1.77819 10.8851 1.79564 10.9389 1.76173 10.9639L1.4997 11.1575L1.59799 11.468C1.61075 11.5082 1.56493 11.5415 1.5306 11.517L1.26561 11.3276L1.00062 11.517C0.966288 11.5415 0.920567 11.5083 0.933223 11.4681L1.03152 11.1575L0.769483 10.964C0.735575 10.939 0.75303 10.8851 0.795217 10.8848L1.12096 10.8823L1.224 10.5733C1.23729 10.5332 1.29382 10.5332 1.30722 10.5732Z" fill="#F5F5F5"/>
<path d="M1.30722 12.1898L1.41026 12.4988L1.736 12.5013C1.77819 12.5016 1.79564 12.5554 1.76173 12.5805L1.4997 12.774L1.59799 13.0846C1.61075 13.1247 1.56493 13.1581 1.5306 13.1335L1.26561 12.9441L1.00062 13.1336C0.966288 13.1581 0.920567 13.1248 0.933223 13.0846L1.03152 12.7741L0.769483 12.5805C0.735575 12.5554 0.75303 12.5017 0.795217 12.5013L1.12096 12.4988L1.224 12.1898C1.23729 12.1498 1.29382 12.1498 1.30722 12.1898Z" fill="#F5F5F5"/>
<path d="M2.56192 6.51619L2.66496 6.82521L2.9907 6.82769C3.03289 6.82806 3.05034 6.88185 3.01643 6.90689L2.7544 7.10043L2.85269 7.41098C2.86545 7.45117 2.81963 7.48449 2.7853 7.45992L2.52031 7.2705L2.25532 7.45992C2.22099 7.48444 2.17527 7.45117 2.18792 7.41098L2.28622 7.10043L2.02418 6.90689C1.99027 6.88179 2.00773 6.82806 2.04992 6.82769L2.37566 6.82521L2.4787 6.51619C2.49199 6.47621 2.54857 6.47621 2.56192 6.51619Z" fill="#F5F5F5"/>
<path d="M2.56192 8.1328L2.66496 8.44183L2.9907 8.4443C3.03289 8.44467 3.05034 8.49846 3.01643 8.52351L2.7544 8.71705L2.85269 9.0276C2.86545 9.06778 2.81963 9.10111 2.7853 9.07654L2.52031 8.88711L2.25532 9.07654C2.22099 9.10106 2.17527 9.06783 2.18792 9.0276L2.28622 8.71705L2.02418 8.52351C1.99027 8.49852 2.00773 8.44467 2.04992 8.4443L2.37566 8.44183L2.4787 8.1328C2.49199 8.09278 2.54857 8.09278 2.56192 8.1328Z" fill="#F5F5F5"/>
<path d="M2.56192 9.74926L2.66496 10.0583L2.9907 10.0608C3.03289 10.0611 3.05034 10.1149 3.01643 10.14L2.7544 10.3335L2.85269 10.6441C2.86545 10.6842 2.81963 10.7176 2.7853 10.693L2.52031 10.5036L2.25532 10.693C2.22099 10.7175 2.17527 10.6842 2.18792 10.6441L2.28622 10.3335L2.02418 10.14C1.99027 10.1149 2.00773 10.0611 2.04992 10.0608L2.37566 10.0583L2.4787 9.74926C2.49199 9.70923 2.54857 9.70923 2.56192 9.74926Z" fill="#F5F5F5"/>
<path d="M2.56192 11.3658L2.66496 11.6748L2.9907 11.6773C3.03289 11.6777 3.05034 11.7314 3.01643 11.7565L2.7544 11.95L2.85269 12.2606C2.86545 12.3008 2.81963 12.3341 2.7853 12.3095L2.52031 12.1201L2.25532 12.3095C2.22099 12.3341 2.17527 12.3008 2.18792 12.2606L2.28622 11.95L2.02418 11.7565C1.99027 11.7314 2.00773 11.6777 2.04992 11.6773L2.37566 11.6748L2.4787 11.3658C2.49199 11.3258 2.54857 11.3258 2.56192 11.3658Z" fill="#F5F5F5"/>
<path d="M3.81662 5.72362L3.91966 6.03265L4.2454 6.03512C4.28759 6.03549 4.30504 6.08928 4.27113 6.11433L4.0091 6.30781L4.10739 6.61837C4.12015 6.65855 4.07433 6.69188 4.04 6.6673L3.77501 6.47788L3.51002 6.6673C3.47569 6.69188 3.42997 6.65855 3.44262 6.61837L3.54092 6.30781L3.27888 6.11433C3.24497 6.08923 3.26243 6.03544 3.30462 6.03512L3.63036 6.03265L3.7334 5.72362C3.74669 5.6836 3.80327 5.6836 3.81662 5.72362Z" fill="#F5F5F5"/>
<path d="M3.81662 7.34016L3.91966 7.64918L4.2454 7.65166C4.28759 7.65203 4.30504 7.70577 4.27113 7.73087L4.0091 7.9244L4.10739 8.23496C4.12015 8.27514 4.07433 8.30847 4.04 8.28389L3.77501 8.09447L3.51002 8.28389C3.47569 8.30842 3.42997 8.27514 3.44262 8.23496L3.54092 7.9244L3.27888 7.73087C3.24497 7.70577 3.26243 7.65203 3.30462 7.65166L3.63036 7.64918L3.7334 7.34016C3.74669 7.30019 3.80327 7.30019 3.81662 7.34016Z" fill="#F5F5F5"/>
<path d="M3.81662 8.95678L3.91966 9.2658L4.2454 9.26828C4.28759 9.26865 4.30504 9.32238 4.27113 9.34749L4.0091 9.54102L4.10739 9.85157C4.12015 9.89176 4.07433 9.92509 4.04 9.90051L3.77501 9.71109L3.51002 9.90051C3.47569 9.92503 3.42997 9.89181 3.44262 9.85157L3.54092 9.54102L3.27888 9.34749C3.24497 9.32238 3.26243 9.26865 3.30462 9.26828L3.63036 9.2658L3.7334 8.95678C3.74669 8.91675 3.80327 8.91675 3.81662 8.95678Z" fill="#F5F5F5"/>
<path d="M3.81662 10.5732L3.91966 10.8823L4.2454 10.8847C4.28759 10.8851 4.30504 10.9389 4.27113 10.9639L4.0091 11.1575L4.10739 11.468C4.12015 11.5082 4.07433 11.5415 4.04 11.517L3.77501 11.3275L3.51002 11.517C3.47569 11.5415 3.42997 11.5082 3.44262 11.468L3.54092 11.1575L3.27888 10.9639C3.24497 10.9389 3.26243 10.8851 3.30462 10.8847L3.63036 10.8823L3.7334 10.5732C3.74669 10.5332 3.80327 10.5332 3.81662 10.5732Z" fill="#F5F5F5"/>
<path d="M3.81662 12.1898L3.91966 12.4988L4.2454 12.5013C4.28759 12.5016 4.30504 12.5554 4.27113 12.5805L4.0091 12.774L4.10739 13.0846C4.12015 13.1247 4.07433 13.1581 4.04 13.1335L3.77501 12.9441L3.51002 13.1335C3.47569 13.158 3.42997 13.1247 3.44262 13.0846L3.54092 12.774L3.27888 12.5805C3.24497 12.5554 3.26243 12.5016 3.30462 12.5013L3.63036 12.4988L3.7334 12.1898C3.74669 12.1498 3.80327 12.1498 3.81662 12.1898Z" fill="#F5F5F5"/>
<path d="M5.07138 6.51619L5.17442 6.82521L5.50016 6.82769C5.54235 6.82806 5.5598 6.88185 5.52589 6.90689L5.26386 7.10043L5.36215 7.41098C5.37491 7.45117 5.32909 7.48449 5.29476 7.45992L5.02977 7.2705L4.76478 7.45992C4.73045 7.48444 4.68473 7.45117 4.69738 7.41098L4.79568 7.10043L4.53364 6.90689C4.49973 6.88179 4.51719 6.82806 4.55938 6.82769L4.88512 6.82521L4.98816 6.51619C5.0014 6.47621 5.05803 6.47621 5.07138 6.51619Z" fill="#F5F5F5"/>
<path d="M5.07138 8.1328L5.17442 8.44183L5.50016 8.4443C5.54235 8.44467 5.5598 8.49846 5.52589 8.52351L5.26386 8.71705L5.36215 9.0276C5.37491 9.06778 5.32909 9.10111 5.29476 9.07654L5.02977 8.88711L4.76478 9.07654C4.73045 9.10106 4.68473 9.06783 4.69738 9.0276L4.79568 8.71705L4.53364 8.52351C4.49973 8.49852 4.51719 8.44467 4.55938 8.4443L4.88512 8.44183L4.98816 8.1328C5.0014 8.09278 5.05803 8.09278 5.07138 8.1328Z" fill="#F5F5F5"/>
<path d="M5.07138 9.74926L5.17442 10.0583L5.50016 10.0608C5.54235 10.0611 5.5598 10.1149 5.52589 10.14L5.26386 10.3335L5.36215 10.6441C5.37491 10.6842 5.32909 10.7176 5.29476 10.693L5.02977 10.5036L4.76478 10.693C4.73045 10.7175 4.68473 10.6842 4.69738 10.6441L4.79568 10.3335L4.53364 10.14C4.49973 10.1149 4.51719 10.0611 4.55938 10.0608L4.88512 10.0583L4.98816 9.74926C5.0014 9.70923 5.05803 9.70923 5.07138 9.74926Z" fill="#F5F5F5"/>
<path d="M5.07138 11.3658L5.17442 11.6748L5.50016 11.6773C5.54235 11.6777 5.5598 11.7314 5.52589 11.7565L5.26386 11.95L5.36215 12.2606C5.37491 12.3008 5.32909 12.3341 5.29476 12.3095L5.02977 12.1201L4.76478 12.3095C4.73045 12.3341 4.68473 12.3008 4.69738 12.2606L4.79568 11.95L4.53364 11.7565C4.49973 11.7314 4.51719 11.6777 4.55938 11.6773L4.88512 11.6748L4.98816 11.3658C5.0014 11.3258 5.05803 11.3258 5.07138 11.3658Z" fill="#F5F5F5"/>
<path d="M6.32613 5.72362L6.42917 6.03264L6.75491 6.03512C6.7971 6.03549 6.81456 6.08928 6.78065 6.11432L6.51861 6.30781L6.61691 6.61836C6.62967 6.65854 6.58384 6.69187 6.54951 6.6673L6.28447 6.47793L6.01948 6.66735C5.98515 6.69192 5.93943 6.6586 5.95208 6.61841L6.05038 6.30786L5.78834 6.11438C5.75443 6.08928 5.77189 6.03549 5.81408 6.03517L6.13982 6.03269L6.24286 5.72367C6.2562 5.68359 6.31279 5.68359 6.32613 5.72362Z" fill="#F5F5F5"/>
<path d="M6.32613 7.34016L6.42917 7.64918L6.75491 7.65166C6.7971 7.65203 6.81456 7.70577 6.78065 7.73087L6.51861 7.9244L6.61691 8.23496C6.62967 8.27514 6.58384 8.30847 6.54951 8.28389L6.28447 8.09447L6.01948 8.28389C5.98515 8.30842 5.93943 8.27514 5.95208 8.23496L6.05038 7.9244L5.78834 7.73087C5.75443 7.70577 5.77189 7.65203 5.81408 7.65166L6.13982 7.64918L6.24286 7.34016C6.2562 7.30019 6.31279 7.30019 6.32613 7.34016Z" fill="#F5F5F5"/>
<path d="M6.32613 8.95672L6.42917 9.26575L6.75491 9.26823C6.7971 9.26859 6.81456 9.32233 6.78065 9.34743L6.51861 9.54097L6.61691 9.85152C6.62967 9.8917 6.58384 9.92503 6.54951 9.90046L6.28447 9.71098L6.01948 9.9004C5.98515 9.92493 5.93943 9.89165 5.95208 9.85147L6.05038 9.54091L5.78834 9.34738C5.75443 9.32228 5.77189 9.26854 5.81408 9.26817L6.13982 9.26569L6.24286 8.95667C6.2562 8.9167 6.31279 8.9167 6.32613 8.95672Z" fill="#F5F5F5"/>
<path d="M6.32613 10.5732L6.42917 10.8823L6.75491 10.8847C6.7971 10.8851 6.81456 10.9389 6.78065 10.9639L6.51861 11.1575L6.61691 11.468C6.62967 11.5082 6.58384 11.5415 6.54951 11.517L6.28447 11.3275L6.01948 11.517C5.98515 11.5415 5.93943 11.5082 5.95208 11.468L6.05038 11.1575L5.78834 10.9639C5.75443 10.9389 5.77189 10.8851 5.81408 10.8847L6.13982 10.8823L6.24286 10.5732C6.2562 10.5332 6.31279 10.5332 6.32613 10.5732Z" fill="#F5F5F5"/>
<path d="M6.32613 12.1898L6.42917 12.4988L6.75491 12.5013C6.7971 12.5016 6.81456 12.5554 6.78065 12.5805L6.51861 12.774L6.61691 13.0846C6.62967 13.1247 6.58384 13.1581 6.54951 13.1335L6.28447 12.9441L6.01948 13.1335C5.98515 13.158 5.93943 13.1247 5.95208 13.0846L6.05038 12.774L5.78834 12.5805C5.75443 12.5554 5.77189 12.5016 5.81408 12.5013L6.13982 12.4988L6.24286 12.1898C6.2562 12.1498 6.31279 12.1498 6.32613 12.1898Z" fill="#F5F5F5"/>
<path d="M7.58083 6.51619L7.68388 6.82521L8.00962 6.82769C8.0518 6.82806 8.06926 6.88185 8.03535 6.90689L7.77331 7.10043L7.87161 7.41098C7.88437 7.45117 7.83855 7.48449 7.80422 7.45992L7.53923 7.2705L7.27424 7.45992C7.23991 7.48444 7.19419 7.45117 7.20684 7.41098L7.30514 7.10043L7.0431 6.90689C7.0092 6.88179 7.02665 6.82806 7.06884 6.82769L7.39458 6.82521L7.49762 6.51619C7.51096 6.47621 7.56749 6.47621 7.58083 6.51619Z" fill="#F5F5F5"/>
<path d="M7.58083 8.1328L7.68388 8.44183L8.00962 8.4443C8.0518 8.44467 8.06926 8.49846 8.03535 8.52351L7.77331 8.71705L7.87161 9.0276C7.88437 9.06778 7.83855 9.10111 7.80422 9.07654L7.53923 8.88711L7.27424 9.07654C7.23991 9.10106 7.19419 9.06783 7.20684 9.0276L7.30514 8.71705L7.0431 8.52351C7.0092 8.49852 7.02665 8.44467 7.06884 8.4443L7.39458 8.44183L7.49762 8.1328C7.51096 8.09278 7.56749 8.09278 7.58083 8.1328Z" fill="#F5F5F5"/>
<path d="M7.58083 9.74926L7.68388 10.0583L8.00962 10.0608C8.0518 10.0611 8.06926 10.1149 8.03535 10.14L7.77331 10.3335L7.87161 10.6441C7.88437 10.6842 7.83855 10.7176 7.80422 10.693L7.53923 10.5036L7.27424 10.693C7.23991 10.7175 7.19419 10.6842 7.20684 10.6441L7.30514 10.3335L7.0431 10.14C7.0092 10.1149 7.02665 10.0611 7.06884 10.0608L7.39458 10.0583L7.49762 9.74926C7.51096 9.70923 7.56749 9.70923 7.58083 9.74926Z" fill="#F5F5F5"/>
<path d="M7.58083 11.3658L7.68388 11.6748L8.00962 11.6773C8.0518 11.6777 8.06926 11.7314 8.03535 11.7565L7.77331 11.95L7.87161 12.2606C7.88437 12.3008 7.83855 12.3341 7.80422 12.3095L7.53923 12.1201L7.27424 12.3095C7.23991 12.3341 7.19419 12.3008 7.20684 12.2606L7.30514 11.95L7.0431 11.7565C7.0092 11.7314 7.02665 11.6777 7.06884 11.6773L7.39458 11.6748L7.49762 11.3658C7.51096 11.3258 7.56749 11.3258 7.58083 11.3658Z" fill="#F5F5F5"/>
<path d="M8.8356 5.72362L8.93864 6.03265L9.26438 6.03512C9.30657 6.03549 9.32402 6.08928 9.29012 6.11433L9.02808 6.30781L9.12637 6.61837C9.13914 6.65855 9.09331 6.69188 9.05898 6.6673L8.79399 6.47788L8.529 6.6673C8.49467 6.69188 8.44895 6.65855 8.4616 6.61837L8.5599 6.30781L8.29786 6.11433C8.26396 6.08923 8.28141 6.03544 8.3236 6.03512L8.64934 6.03265L8.75238 5.72362C8.76562 5.6836 8.82226 5.6836 8.8356 5.72362Z" fill="#F5F5F5"/>
<path d="M8.8356 7.34016L8.93864 7.64918L9.26438 7.65166C9.30657 7.65203 9.32402 7.70577 9.29012 7.73087L9.02808 7.9244L9.12637 8.23496C9.13914 8.27514 9.09331 8.30847 9.05898 8.28389L8.79399 8.09447L8.529 8.28389C8.49467 8.30842 8.44895 8.27514 8.4616 8.23496L8.5599 7.9244L8.29786 7.73087C8.26396 7.70577 8.28141 7.65203 8.3236 7.65166L8.64934 7.64918L8.75238 7.34016C8.76562 7.30019 8.82226 7.30019 8.8356 7.34016Z" fill="#F5F5F5"/>
<path d="M8.8356 8.95678L8.93864 9.2658L9.26438 9.26828C9.30657 9.26865 9.32402 9.32238 9.29012 9.34749L9.02808 9.54102L9.12637 9.85157C9.13914 9.89176 9.09331 9.92509 9.05898 9.90051L8.79399 9.71109L8.529 9.90051C8.49467 9.92503 8.44895 9.89181 8.4616 9.85157L8.5599 9.54102L8.29786 9.34749C8.26396 9.32238 8.28141 9.26865 8.3236 9.26828L8.64934 9.2658L8.75238 8.95678C8.76562 8.91675 8.82226 8.91675 8.8356 8.95678Z" fill="#F5F5F5"/>
<path d="M8.8356 10.5732L8.93864 10.8823L9.26438 10.8847C9.30657 10.8851 9.32402 10.9389 9.29012 10.9639L9.02808 11.1575L9.12637 11.468C9.13914 11.5082 9.09331 11.5415 9.05898 11.517L8.79399 11.3275L8.529 11.517C8.49467 11.5415 8.44895 11.5082 8.4616 11.468L8.5599 11.1575L8.29786 10.9639C8.26396 10.9389 8.28141 10.8851 8.3236 10.8847L8.64934 10.8823L8.75238 10.5732C8.76562 10.5332 8.82226 10.5332 8.8356 10.5732Z" fill="#F5F5F5"/>
<path d="M8.8356 12.1898L8.93864 12.4988L9.26438 12.5013C9.30657 12.5016 9.32402 12.5554 9.29012 12.5805L9.02808 12.774L9.12637 13.0846C9.13914 13.1247 9.09331 13.1581 9.05898 13.1335L8.79399 12.9441L8.529 13.1335C8.49467 13.158 8.44895 13.1247 8.4616 13.0846L8.5599 12.774L8.29786 12.5805C8.26396 12.5554 8.28141 12.5016 8.3236 12.5013L8.64934 12.4988L8.75238 12.1898C8.76562 12.1498 8.82226 12.1498 8.8356 12.1898Z" fill="#F5F5F5"/>
<path d="M10.0903 6.51619L10.1933 6.82521L10.5191 6.82769C10.5613 6.82806 10.5787 6.88185 10.5448 6.90689L10.2828 7.10043L10.3811 7.41098C10.3938 7.45117 10.348 7.48449 10.3137 7.45992L10.0487 7.2705L9.7837 7.45992C9.74937 7.48444 9.70365 7.45117 9.7163 7.41098L9.8146 7.10043L9.55256 6.90689C9.51866 6.88179 9.53611 6.82806 9.5783 6.82769L9.90404 6.82521L10.0071 6.51619C10.0204 6.47621 10.077 6.47621 10.0903 6.51619Z" fill="#F5F5F5"/>
<path d="M10.0903 8.1328L10.1933 8.44183L10.5191 8.4443C10.5613 8.44467 10.5787 8.49846 10.5448 8.52351L10.2828 8.71705L10.3811 9.0276C10.3938 9.06778 10.348 9.10111 10.3137 9.07654L10.0487 8.88711L9.7837 9.07654C9.74937 9.10106 9.70365 9.06783 9.7163 9.0276L9.8146 8.71705L9.55256 8.52351C9.51866 8.49852 9.53611 8.44467 9.5783 8.4443L9.90404 8.44183L10.0071 8.1328C10.0204 8.09278 10.077 8.09278 10.0903 8.1328Z" fill="#F5F5F5"/>
<path d="M10.0903 9.74926L10.1933 10.0583L10.5191 10.0608C10.5613 10.0611 10.5787 10.1149 10.5448 10.14L10.2828 10.3335L10.3811 10.6441C10.3938 10.6842 10.348 10.7176 10.3137 10.693L10.0487 10.5036L9.7837 10.693C9.74937 10.7175 9.70365 10.6842 9.7163 10.6441L9.8146 10.3335L9.55256 10.14C9.51866 10.1149 9.53611 10.0611 9.5783 10.0608L9.90404 10.0583L10.0071 9.74926C10.0204 9.70923 10.077 9.70923 10.0903 9.74926Z" fill="#F5F5F5"/>
<path d="M10.0903 11.3658L10.1933 11.6748L10.5191 11.6773C10.5613 11.6777 10.5787 11.7314 10.5448 11.7565L10.2828 11.95L10.3811 12.2606C10.3938 12.3008 10.348 12.3341 10.3137 12.3095L10.0487 12.1201L9.7837 12.3095C9.74937 12.3341 9.70365 12.3008 9.7163 12.2606L9.8146 11.95L9.55256 11.7565C9.51866 11.7314 9.53611 11.6777 9.5783 11.6773L9.90404 11.6748L10.0071 11.3658C10.0204 11.3258 10.077 11.3258 10.0903 11.3658Z" fill="#F5F5F5"/>
<path d="M11.3451 5.72362L11.4481 6.03265L11.7738 6.03512C11.816 6.03549 11.8335 6.08928 11.7996 6.11433L11.5375 6.30781L11.6358 6.61837C11.6486 6.65855 11.6028 6.69188 11.5684 6.6673L11.3034 6.47788L11.0385 6.6673C11.0041 6.69188 10.9584 6.65855 10.9711 6.61837L11.0694 6.30781L10.8073 6.11433C10.7734 6.08923 10.7909 6.03544 10.8331 6.03512L11.1588 6.03265L11.2618 5.72362C11.2751 5.6836 11.3317 5.6836 11.3451 5.72362Z" fill="#F5F5F5"/>
<path d="M11.3451 7.34016L11.4481 7.64918L11.7738 7.65166C11.816 7.65203 11.8335 7.70577 11.7996 7.73087L11.5375 7.9244L11.6358 8.23496C11.6486 8.27514 11.6028 8.30847 11.5684 8.28389L11.3034 8.09447L11.0385 8.28389C11.0041 8.30842 10.9584 8.27514 10.9711 8.23496L11.0694 7.9244L10.8073 7.73087C10.7734 7.70577 10.7909 7.65203 10.8331 7.65166L11.1588 7.64918L11.2618 7.34016C11.2751 7.30019 11.3317 7.30019 11.3451 7.34016Z" fill="#F5F5F5"/>
<path d="M11.3451 8.95678L11.4481 9.2658L11.7738 9.26828C11.816 9.26865 11.8335 9.32238 11.7996 9.34749L11.5375 9.54102L11.6358 9.85157C11.6486 9.89176 11.6028 9.92509 11.5684 9.90051L11.3034 9.71109L11.0385 9.90051C11.0041 9.92503 10.9584 9.89181 10.9711 9.85157L11.0694 9.54102L10.8073 9.34749C10.7734 9.32238 10.7909 9.26865 10.8331 9.26828L11.1588 9.2658L11.2618 8.95678C11.2751 8.91675 11.3317 8.91675 11.3451 8.95678Z" fill="#F5F5F5"/>
<path d="M11.3451 10.5732L11.4481 10.8823L11.7738 10.8847C11.816 10.8851 11.8335 10.9389 11.7996 10.9639L11.5375 11.1575L11.6358 11.468C11.6486 11.5082 11.6028 11.5415 11.5684 11.517L11.3034 11.3275L11.0385 11.517C11.0041 11.5415 10.9584 11.5082 10.9711 11.468L11.0694 11.1575L10.8073 10.9639C10.7734 10.9389 10.7909 10.8851 10.8331 10.8847L11.1588 10.8823L11.2618 10.5732C11.2751 10.5332 11.3317 10.5332 11.3451 10.5732Z" fill="#F5F5F5"/>
<path d="M11.3451 12.1898L11.4481 12.4988L11.7738 12.5013C11.816 12.5016 11.8335 12.5554 11.7996 12.5805L11.5375 12.774L11.6358 13.0846C11.6486 13.1247 11.6028 13.1581 11.5684 13.1335L11.3034 12.9441L11.0385 13.1335C11.0041 13.158 10.9584 13.1247 10.9711 13.0846L11.0694 12.774L10.8073 12.5805C10.7734 12.5554 10.7909 12.5016 10.8331 12.5013L11.1588 12.4988L11.2618 12.1898C11.2751 12.1498 11.3317 12.1498 11.3451 12.1898Z" fill="#F5F5F5"/>
</g>
<defs>
<clipPath id="clip0">
<rect width="27" height="27" fill="white"/>
</clipPath>
</defs>
</svg>
