<svg width="90" height="90" viewBox="0 0 90 90" fill="none" xmlns="http://www.w3.org/2000/svg">
<path d="M44.9611 89.7727L18.9878 82.5622L13.1996 17.6426H76.8004L71.0063 82.5523L44.9611 89.7727Z" fill="#264DE4"/>
<path d="M66.0458 78.4189L70.997 22.9504H45V84.2534L66.0458 78.4189Z" fill="#2965F1"/>
<path d="M26.4687 47.0284L27.1822 54.9906H45V47.0284H26.4687ZM25.0347 30.913L25.7584 38.8751H45V30.913H25.0347ZM45 67.707L44.9651 67.7162L36.0977 65.3219L35.5308 58.9718H27.538L28.6534 71.4735L44.9633 76.001L45 75.991V67.707Z" fill="#EBEBEB"/>
<path d="M63.4804 47.0284L64.9176 30.913H44.9725V38.8751H56.1919L55.4674 47.0284H44.9725V54.9906H54.7771L53.8526 65.3169L44.9723 67.7137V75.9972L61.2952 71.4735L61.4149 70.1283L63.2862 49.1665L63.4804 47.0284Z" fill="white"/>
</svg>
