<svg width="94" height="94" viewBox="0 0 94 94" fill="none" xmlns="http://www.w3.org/2000/svg">
<g clip-path="url(#clip0)">
<path d="M12.7208 75.7886L13.2894 74.9927L40.1782 23.9718L40.235 23.4317L28.3821 1.16706C27.3886 -0.697943 24.5927 -0.226336 24.267 1.86148L12.7208 75.7886Z" fill="#FFC24A"/>
<path d="M13.0563 75.1819L13.4862 74.3434L40.0935 23.8571L28.2699 1.50195C27.2873 -0.343503 24.7919 0.127033 24.4694 2.19289L13.0563 75.1819Z" fill="#FFA712"/>
<g filter="url(#filter0_i)">
<path d="M13.0563 75.1819L13.4862 74.3434L40.0935 23.8571L28.2699 1.50195C27.2873 -0.343503 24.7919 0.127033 24.4694 2.19289L13.0563 75.1819Z" fill="#FFA000"/>
</g>
<path d="M48.876 40.2727L57.7016 31.2342L48.8733 14.3812C48.0354 12.7858 45.6955 12.781 44.8664 14.3812L40.1495 23.376V24.1419L48.8757 40.2727H48.876Z" fill="#F4BD62"/>
<path d="M48.7185 39.8962L57.2987 31.1089L48.7185 14.7709C47.9038 13.22 45.9245 13.0575 45.1184 14.6129L40.3769 23.7475L40.2349 24.2145L48.7185 39.8962Z" fill="#FFA50E"/>
<g filter="url(#filter1_i)">
<path d="M48.7185 39.8962L57.2987 31.1089L48.7185 14.7709C47.9038 13.22 45.9245 13.0575 45.1184 14.6129L40.3769 23.7475L40.2349 24.2145L48.7185 39.8962Z" fill="#FF8F00"/>
</g>
<path d="M12.7208 75.7886L12.9785 75.5294L13.9147 75.1491L48.3217 40.8699L48.7576 39.6833L40.1744 23.3273L12.7208 75.7886Z" fill="#FF6F00"/>
<path d="M49.9783 93.0763L81.1175 75.7099L72.2252 20.9448C71.947 19.2314 69.845 18.5541 68.6184 19.7825L12.7208 75.7886L43.6814 93.075C44.6437 93.6123 45.7275 93.8944 46.8297 93.8947C47.9318 93.8949 49.0157 93.6132 49.9783 93.0763Z" fill="#FDE068"/>
<path d="M80.8384 75.5642L72.0137 21.2151C71.7378 19.5145 69.9896 18.811 68.7724 20.0303L13.0663 75.682L43.687 92.797C44.642 93.3302 45.7175 93.6103 46.8113 93.6106C47.905 93.6108 48.9807 93.3313 49.936 92.7986L80.8387 75.5639L80.8384 75.5642Z" fill="#FFC400"/>
<path d="M49.978 92.5646C49.0155 93.1014 47.9316 93.3831 46.8295 93.3829C45.7274 93.3826 44.6437 93.1005 43.6813 92.5632L12.9701 75.5254L12.7211 75.7887L43.6813 93.075C44.6437 93.6123 45.7275 93.8945 46.8296 93.8947C47.9318 93.8949 49.0157 93.6132 49.9783 93.0764L81.1174 75.7099L81.0411 75.2407L49.9783 92.5648L49.978 92.5646Z" fill="#EEAB37"/>
</g>
<defs>
<filter id="filter0_i" x="13.0563" y="0.348633" width="27.0372" height="74.8333" filterUnits="userSpaceOnUse" color-interpolation-filters="sRGB">
<feFlood flood-opacity="0" result="BackgroundImageFix"/>
<feBlend mode="normal" in="SourceGraphic" in2="BackgroundImageFix" result="shape"/>
<feColorMatrix in="SourceAlpha" type="matrix" values="0 0 0 0 0 0 0 0 0 0 0 0 0 0 0 0 0 0 127 0" result="hardAlpha"/>
<feOffset/>
<feGaussianBlur stdDeviation="4.68661"/>
<feComposite in2="hardAlpha" operator="arithmetic" k2="-1" k3="1"/>
<feColorMatrix type="matrix" values="0 0 0 0 0 0 0 0 0 0 0 0 0 0 0 0 0 0 0.06 0"/>
<feBlend mode="normal" in2="shape" result="effect1_innerShadow"/>
</filter>
<filter id="filter1_i" x="40.2349" y="11.6493" width="17.3316" height="28.247" filterUnits="userSpaceOnUse" color-interpolation-filters="sRGB">
<feFlood flood-opacity="0" result="BackgroundImageFix"/>
<feBlend mode="normal" in="SourceGraphic" in2="BackgroundImageFix" result="shape"/>
<feColorMatrix in="SourceAlpha" type="matrix" values="0 0 0 0 0 0 0 0 0 0 0 0 0 0 0 0 0 0 127 0" result="hardAlpha"/>
<feOffset dx="0.267806" dy="-2.41026"/>
<feGaussianBlur stdDeviation="0.937322"/>
<feComposite in2="hardAlpha" operator="arithmetic" k2="-1" k3="1"/>
<feColorMatrix type="matrix" values="0 0 0 0 0 0 0 0 0 0 0 0 0 0 0 0 0 0 0.09 0"/>
<feBlend mode="normal" in2="shape" result="effect1_innerShadow"/>
</filter>
<clipPath id="clip0">
<rect width="94" height="94" fill="white"/>
</clipPath>
</defs>
</svg>
