<svg width="34" height="34" viewBox="0 0 34 34" fill="none" xmlns="http://www.w3.org/2000/svg">
<path fill-rule="evenodd" clip-rule="evenodd" d="M17 2.34705L29.6898 9.67351V24.3265L17 31.6529L4.31018 24.3265V9.67351L17 2.34705ZM5.734 10.4956V21.2585L15.055 5.11407L5.734 10.4956ZM17 4.59292L6.25515 23.2035H27.7449L17 4.59292ZM26.321 24.6274H7.67897L17 30.0088L26.321 24.6274ZM28.266 21.2585L18.945 5.11407L28.266 10.4956V21.2585Z" fill="#E10098"/>
<path d="M17 6.16789C18.6562 6.16789 19.9988 4.82528 19.9988 3.16909C19.9988 1.5129 18.6562 0.170288 17 0.170288C15.3438 0.170288 14.0012 1.5129 14.0012 3.16909C14.0012 4.82528 15.3438 6.16789 17 6.16789Z" fill="#E10098"/>
<path d="M28.9779 13.0833C30.6341 13.0833 31.9767 11.7407 31.9767 10.0845C31.9767 8.4283 30.6341 7.08569 28.9779 7.08569C27.3217 7.08569 25.9791 8.4283 25.9791 10.0845C25.9791 11.7407 27.3217 13.0833 28.9779 13.0833Z" fill="#E10098"/>
<path d="M28.9779 26.9142C30.6341 26.9142 31.9767 25.5716 31.9767 23.9154C31.9767 22.2592 30.6341 20.9166 28.9779 20.9166C27.3217 20.9166 25.9791 22.2592 25.9791 23.9154C25.9791 25.5716 27.3217 26.9142 28.9779 26.9142Z" fill="#E10098"/>
<path d="M17 33.8298C18.6562 33.8298 19.9988 32.4871 19.9988 30.831C19.9988 29.1748 18.6562 27.8322 17 27.8322C15.3438 27.8322 14.0012 29.1748 14.0012 30.831C14.0012 32.4871 15.3438 33.8298 17 33.8298Z" fill="#E10098"/>
<path d="M5.02041 26.9142C6.6766 26.9142 8.01921 25.5716 8.01921 23.9154C8.01921 22.2592 6.6766 20.9166 5.02041 20.9166C3.36421 20.9166 2.02161 22.2592 2.02161 23.9154C2.02161 25.5716 3.36421 26.9142 5.02041 26.9142Z" fill="#E10098"/>
<path d="M5.02041 13.0833C6.6766 13.0833 8.01921 11.7407 8.01921 10.0845C8.01921 8.4283 6.6766 7.08569 5.02041 7.08569C3.36421 7.08569 2.02161 8.4283 2.02161 10.0845C2.02161 11.7407 3.36421 13.0833 5.02041 13.0833Z" fill="#E10098"/>
</svg>
