<svg width="90" height="90" viewBox="0 0 90 90" fill="none" xmlns="http://www.w3.org/2000/svg">
<path d="M76.8004 17.6425L71.0063 82.5522L44.9611 89.7726L18.9878 82.5621L13.1996 17.6425H76.8004Z" fill="#E44D26"/>
<path d="M45 84.2534L66.0458 78.4189L70.997 22.9504H45V84.2534Z" fill="#F16529"/>
<path d="M33.7362 38.8751H45V30.913H25.0347L25.2251 33.049L27.1822 54.9906H45V47.0284H34.464L33.7362 38.8751ZM35.5308 58.9718H27.538L28.6534 71.4735L44.9633 76.001L45 75.991V67.707L44.9651 67.7162L36.0977 65.3219L35.5308 58.9718Z" fill="#EBEBEB"/>
<path d="M44.9725 54.9906H54.7771L53.8526 65.3169L44.9723 67.7137V75.9972L61.2952 71.4735L61.4149 70.1283L63.2862 49.1665L63.4804 47.0284H44.9725V54.9906ZM44.9725 38.8556V38.8751H64.2049L64.3644 37.0856L64.7274 33.049L64.9176 30.913H44.9725V38.8559V38.8556Z" fill="white"/>
</svg>
