<svg width="60" height="60" viewBox="0 0 80 80" fill="none" xmlns="http://www.w3.org/2000/svg">
<path d="M79.9766 0H0.0234375C0.0104933 0 0 0.0104933 0 0.0234375V79.9766C0 79.9895 0.0104933 80 0.0234375 80H79.9766C79.9895 80 80 79.9895 80 79.9766V0.0234375C80 0.0104933 79.9895 0 79.9766 0Z" fill="#F7DF1E"/>
<path d="M50.625 57.8125C52.1875 60.4688 54.375 62.3438 57.9688 62.3438C61.0938 62.3438 63.125 60.7812 63.125 58.5938C63.125 56.0938 61.0938 55.1562 57.6562 53.5938L55.7812 52.8125C50.3125 50.4688 46.7188 47.6562 46.7188 41.5625C46.7188 35.9375 50.9375 31.5625 57.6562 31.5625C62.5 31.5625 65.9375 33.2812 68.2812 37.6562L62.5 41.4062C61.25 39.0625 59.8438 38.125 57.6562 38.125C55.4688 38.125 54.0625 39.5312 54.0625 41.4062C54.0625 43.5938 55.4688 44.5312 58.75 45.9375L60.625 46.7188C67.0312 49.5312 70.625 52.1875 70.625 58.5938C70.625 65.3125 65.3125 69.0625 58.125 69.0625C51.0938 69.0625 46.5625 65.7812 44.375 61.4062L50.625 57.8125ZM24.0625 58.4375C25.3125 60.4688 26.25 62.3438 28.9062 62.3438C31.4062 62.3438 32.9688 61.4062 32.9688 57.6562V31.7188H40.4688V57.3438C40.4688 65.1562 35.9375 68.5938 29.2188 68.5938C23.125 68.5938 19.6875 65.4688 17.9688 61.7188L24.0625 58.4375Z" fill="black"/>
</svg>
