<svg width="23" height="26" viewBox="0 0 23 26" fill="none" xmlns="http://www.w3.org/2000/svg">
<path d="M22.3043 12.4571C22.3043 10.9338 21.257 9.65223 19.8509 9.28606L23 0H7.39386L10.5502 9.31535C9.18809 9.71082 8.18478 10.9704 8.18478 12.4644C8.18478 13.5629 8.73404 14.5369 9.5689 15.1374C9.23935 15.6061 8.85853 16.0382 8.42645 16.4483C7.61356 17.21 6.71278 17.7958 5.73877 18.184C4.85996 17.5908 4.47915 16.5435 4.82335 15.6061C6.16353 15.196 7.13754 13.9437 7.13754 12.4717C7.13754 10.6629 5.66553 9.19818 3.86398 9.19818C2.0551 9.19818 0.583102 10.6702 0.583102 12.4791C0.583102 13.3725 0.949272 14.1927 1.53514 14.7786C1.48388 14.8811 1.43262 14.9837 1.38135 15.0935C0.890685 16.1041 0.334107 17.2466 0.121729 18.5282C-0.303028 21.0914 0.392694 23.1492 2.06975 24.3137C3.01447 24.9654 4.05439 25.295 5.17487 25.295C7.10092 25.295 9.05626 24.3283 10.9457 23.3909C12.2932 22.7245 13.6846 22.0288 15.0541 21.6919C15.5594 21.5674 16.0867 21.4941 16.6433 21.4136C17.7711 21.2525 18.9355 21.084 19.9828 20.4762C21.2058 19.7658 22.0406 18.5794 22.2823 17.2173C22.4654 16.17 22.2823 15.1155 21.8136 14.1927C22.1285 13.6874 22.3043 13.0942 22.3043 12.4571ZM20.8762 12.4571C20.8762 13.475 20.0487 14.3026 19.0307 14.3026C18.0128 14.3026 17.1852 13.475 17.1852 12.4571C17.1852 12.1275 17.2731 11.8126 17.4269 11.5417C17.4855 11.4391 17.5587 11.3366 17.632 11.2487C17.7052 11.1608 17.7931 11.0803 17.8883 11.0071L17.8956 10.9997C17.9542 10.9558 18.0201 10.9119 18.086 10.8679C18.086 10.8679 18.0933 10.8679 18.0933 10.8606C18.1226 10.8459 18.1519 10.824 18.1812 10.8093C18.1885 10.8093 18.1959 10.802 18.2032 10.802C18.2325 10.7874 18.2691 10.7727 18.3057 10.7581C18.3423 10.7434 18.3789 10.7288 18.4082 10.7141C18.4156 10.7141 18.4229 10.7068 18.4302 10.7068C18.4595 10.6995 18.4888 10.6848 18.5181 10.6775C18.5254 10.6775 18.5401 10.6702 18.5474 10.6702C18.584 10.6629 18.6133 10.6555 18.6499 10.6482H18.6572L18.7671 10.6262C18.7744 10.6262 18.7891 10.6262 18.7964 10.6189C18.8257 10.6189 18.855 10.6116 18.8843 10.6116H18.9209C18.9575 10.6116 18.9941 10.6043 19.038 10.6043H19.1332C19.1625 10.6043 19.1845 10.6043 19.2138 10.6116H19.2285C19.287 10.6189 19.3456 10.6262 19.4042 10.6409C20.2391 10.8166 20.8762 11.5636 20.8762 12.4571ZM9.43708 1.46468H20.9568L18.313 9.26409C18.2032 9.28606 18.0933 9.32268 17.9835 9.35929L15.2006 3.68367L12.4104 9.32268C12.3005 9.28606 12.1834 9.26409 12.0662 9.24212L9.43708 1.46468ZM14.6733 11.82C14.5342 11.1316 14.1826 10.5164 13.6846 10.0623L15.2006 7.00116L16.7312 10.1282C16.2771 10.5823 15.9476 11.1608 15.8158 11.82H14.6733ZM11.0043 10.6629C11.0409 10.6555 11.0702 10.6482 11.1068 10.6409H11.1288C11.1581 10.6336 11.1874 10.6336 11.2167 10.6262H11.246C11.2753 10.6262 11.2972 10.6189 11.3265 10.6189H11.6121C11.6414 10.6189 11.6634 10.6262 11.6854 10.6262C11.7 10.6262 11.7073 10.6262 11.722 10.6336C11.7513 10.6409 11.7732 10.6409 11.8025 10.6482C11.8099 10.6482 11.8172 10.6482 11.8318 10.6555C11.8684 10.6629 11.9051 10.6702 11.9344 10.6775H11.9417C11.971 10.6848 12.0003 10.6921 12.0296 10.7068C12.0369 10.7068 12.0442 10.7141 12.0589 10.7141C12.0808 10.7214 12.1101 10.7288 12.1321 10.7434C12.1394 10.7434 12.1467 10.7507 12.1541 10.7507C12.1834 10.7654 12.2126 10.7727 12.2419 10.7874H12.2493C12.2859 10.802 12.3152 10.8166 12.3445 10.8386H12.3518C12.3811 10.8533 12.4104 10.8752 12.4397 10.8899C12.447 10.8899 12.447 10.8972 12.4543 10.8972C12.4836 10.9119 12.5056 10.9338 12.5349 10.9485L12.5422 10.9558C12.6301 11.0217 12.7106 11.0949 12.7912 11.1682L12.7985 11.1755C12.8718 11.2561 12.945 11.3439 13.0036 11.4391C13.194 11.7321 13.3038 12.0763 13.3038 12.4498C13.3038 13.4677 12.4763 14.2953 11.4583 14.2953C10.4404 14.2953 9.61284 13.4677 9.61284 12.4498C9.60552 11.5929 10.1987 10.8679 11.0043 10.6629ZM3.79807 10.6116C4.81602 10.6116 5.64356 11.4391 5.64356 12.4571C5.64356 13.475 4.81602 14.3026 3.79807 14.3026C2.78012 14.3026 1.95258 13.475 1.95258 12.4571C1.95258 11.4391 2.78012 10.6116 3.79807 10.6116ZM20.8323 16.961C20.6712 17.8984 20.0926 18.7186 19.2431 19.2093C18.4448 19.6706 17.4635 19.8171 16.4309 19.9636C15.867 20.0441 15.2738 20.132 14.7026 20.2711C13.1793 20.6446 11.7147 21.377 10.2939 22.08C8.47772 22.9808 6.76404 23.8303 5.17487 23.8303C4.34732 23.8303 3.60766 23.596 2.90462 23.1053C1.29347 21.9921 1.37403 19.905 1.56444 18.7625C1.7402 17.6933 2.23087 16.69 2.69956 15.7306C2.72886 15.6721 2.75083 15.6208 2.78012 15.5622C2.94123 15.6208 3.10967 15.6647 3.28543 15.694C3.00714 17.2466 3.79807 18.8504 5.33598 19.6413L5.61427 19.7878L5.91453 19.678C7.19612 19.2239 8.38251 18.4842 9.42976 17.4956C10.023 16.939 10.5283 16.3385 10.953 15.6867C11.1215 15.716 11.2899 15.7233 11.4583 15.7233C12.9816 15.7233 14.2632 14.6761 14.6294 13.27H15.8597C16.2259 14.6834 17.5075 15.7233 19.0307 15.7233C19.6386 15.7233 20.2025 15.5549 20.6858 15.2693C20.8762 15.8185 20.9348 16.3897 20.8323 16.961Z" fill="#8B3F4E"/>
</svg>
