<svg width="88" height="88" viewBox="0 0 88 88" fill="none" xmlns="http://www.w3.org/2000/svg">
<path d="M5.62462 21.538C-2.15971 32.7213 -1.19538 47.267 4.75562 59.1433C4.89129 59.433 5.04162 59.708 5.18829 59.983C5.27262 60.1737 5.36795 60.3497 5.47062 60.5293C5.51829 60.632 5.58429 60.7383 5.64295 60.8337C5.73829 61.0243 5.84095 61.2077 5.93995 61.391L6.51562 62.3627C6.62195 62.5423 6.72462 62.7183 6.84562 62.898C7.04729 63.2427 7.28562 63.5837 7.49462 63.9283C7.58995 64.0713 7.67795 64.2143 7.78429 64.3573C8.13989 64.9159 8.51912 65.4591 8.92095 65.9854C9.20695 66.3777 9.49295 66.759 9.80095 67.1404C9.89995 67.2797 10.01 67.419 10.1126 67.5583L10.923 68.5447C11.022 68.6583 11.121 68.7903 11.2273 68.9077C11.5866 69.3403 11.968 69.762 12.3493 70.1873C12.3493 70.1947 12.3603 70.202 12.3676 70.213C12.832 70.8002 13.3527 71.3406 13.9223 71.8264C14.2156 72.127 14.509 72.4277 14.8206 72.721L15.191 73.0767C15.598 73.458 16.005 73.8394 16.434 74.206C16.4413 74.206 16.445 74.2133 16.4523 74.217L16.6613 74.4004C17.0353 74.7267 17.413 75.053 17.798 75.3537L18.2563 75.7387C18.568 75.988 18.8906 76.2263 19.2096 76.472L19.7083 76.8533C20.0493 77.11 20.4123 77.363 20.7606 77.6124C20.889 77.704 21.0173 77.7957 21.1493 77.88L21.2556 77.9643L22.286 78.6427L22.726 78.936C23.265 79.2807 23.8003 79.607 24.332 79.9297C24.486 80.0067 24.64 80.091 24.783 80.179C25.179 80.4063 25.5896 80.6373 25.9893 80.85C26.2093 80.9747 26.4366 81.081 26.664 81.1947C26.939 81.3487 27.225 81.499 27.5183 81.653C27.5892 81.6747 27.658 81.7029 27.7236 81.7374C27.8446 81.7924 27.9583 81.851 28.0756 81.9097C28.5156 82.1297 28.9739 82.3387 29.4506 82.5477C29.5386 82.5844 29.6339 82.621 29.7293 82.6724C30.2573 82.9034 30.7853 83.1234 31.3316 83.3397C31.4563 83.3764 31.5883 83.4387 31.7166 83.4863C32.2116 83.6733 32.7213 83.864 33.2236 84.0437L33.407 84.1097C33.968 84.3003 34.5216 84.4837 35.09 84.6597C35.222 84.6964 35.3576 84.744 35.4969 84.7807C36.0799 84.9567 36.6446 85.1657 37.2313 85.2794C74.8513 92.136 85.7853 62.6597 85.7853 62.6597C76.6003 74.6204 60.302 77.7737 44.8653 74.2647C44.2933 74.1327 43.7213 73.9493 43.1456 73.7807C42.4478 73.5747 41.7547 73.3535 41.0666 73.117L40.8393 73.029C40.3406 72.8604 39.8603 72.6733 39.3726 72.4863C39.24 72.4314 39.1055 72.3812 38.9693 72.336C38.4303 72.1197 37.906 71.896 37.3853 71.665C37.2716 71.6283 37.1763 71.577 37.0626 71.533C36.6196 71.329 36.1784 71.1212 35.7389 70.9097C35.6033 70.851 35.4823 70.7887 35.3503 70.719C35.0056 70.5577 34.6609 70.3744 34.3236 70.1983C34.092 70.0871 33.8633 69.9698 33.638 69.8464C33.2236 69.6264 32.8093 69.388 32.395 69.1607C32.2703 69.0727 32.1273 68.9993 31.9843 68.9187C31.4437 68.5986 30.9083 68.2698 30.3783 67.9324C30.2308 67.8407 30.0865 67.7441 29.9456 67.6427C29.5565 67.4028 29.175 67.1509 28.8016 66.8874C28.6733 66.803 28.556 66.7113 28.424 66.6197C28.0597 66.3674 27.7003 66.1083 27.346 65.8424C27.192 65.7177 27.027 65.6003 26.862 65.4757C26.5393 65.2227 26.213 64.9807 25.8903 64.713L25.4576 64.3684C25.0424 64.0334 24.634 63.6898 24.233 63.338C24.1912 63.2972 24.1458 63.2604 24.0973 63.228L22.825 62.0693L22.4583 61.7247C22.1576 61.4203 21.8496 61.127 21.5416 60.8264L21.186 60.4597C20.7986 60.0743 20.4208 59.6794 20.053 59.2753L19.998 59.2167C19.6093 58.7913 19.2316 58.3587 18.8503 57.9187C18.7513 57.805 18.6596 57.684 18.557 57.563L17.7283 56.5473C17.3055 56.0053 16.8899 55.4577 16.4816 54.9047C7.91995 43.2153 4.82162 27.082 11.6746 13.849L5.62462 21.538ZM29.777 12.1183C24.134 20.218 24.453 31.0493 28.8456 39.6147C29.5716 41.0565 30.4012 42.4437 31.3279 43.7653C32.1713 44.9753 33.1026 46.4053 34.232 47.3807C34.6243 47.828 35.0496 48.2607 35.4933 48.697L35.8233 49.027C36.2413 49.4303 36.6703 49.8263 37.1066 50.2187L37.1616 50.2663C37.6561 50.6981 38.1623 51.1162 38.6796 51.5203C38.8043 51.6047 38.9106 51.7037 39.0316 51.788C39.545 52.184 40.062 52.5653 40.5973 52.943L40.6523 52.976C40.8796 53.141 41.1216 53.2913 41.3783 53.4527C41.4809 53.5187 41.5983 53.6067 41.7083 53.6727C42.097 53.922 42.4783 54.1567 42.8706 54.395C42.933 54.4207 42.9879 54.4537 43.0466 54.4793C43.3766 54.681 43.736 54.8753 44.0806 55.055C44.2016 55.1283 44.319 55.1833 44.4436 55.253C44.6893 55.374 44.9313 55.5023 45.166 55.627L45.2833 55.6783C45.7783 55.9203 46.2843 56.1477 46.7793 56.375C46.904 56.4227 47.0103 56.463 47.1166 56.5143C47.5236 56.6903 47.938 56.859 48.345 57.0167C48.5283 57.079 48.7006 57.1523 48.873 57.2073C49.247 57.3467 49.6393 57.475 50.0096 57.6033L50.523 57.7683C51.0583 57.9333 51.601 58.1497 52.1656 58.2413C81.2056 63.0557 87.9303 40.689 87.9303 40.689C81.8766 49.401 70.1616 53.5517 57.6766 50.3103C57.1246 50.1674 56.5768 50.0084 56.034 49.8337C55.8579 49.786 55.704 49.731 55.5353 49.6797C55.1539 49.5477 54.7616 49.4193 54.3913 49.28L53.8633 49.082C53.4526 48.917 53.0346 48.763 52.6349 48.587C52.5103 48.532 52.3966 48.4953 52.3013 48.4403C51.788 48.2093 51.271 47.982 50.7723 47.7363L50.0169 47.344L49.5806 47.124C49.2433 46.948 48.9316 46.7647 48.609 46.574C48.5309 46.5368 48.455 46.4952 48.3816 46.4493C47.993 46.2073 47.5896 45.9727 47.2193 45.7233C47.0946 45.6537 46.981 45.5693 46.8636 45.496L46.101 44.9973C45.573 44.6307 45.056 44.2347 44.5353 43.8533C44.4179 43.747 44.3043 43.659 44.1906 43.5637C38.7016 39.248 34.3713 33.3483 32.318 26.6677C30.1546 19.723 30.6313 11.935 34.3676 5.61368L29.777 12.1183ZM50.0866 5.07468C46.7573 9.95868 46.4383 16.0233 48.7299 21.4097C51.1646 27.1297 56.144 31.6213 61.9446 33.748C62.183 33.8397 62.414 33.9167 62.6596 34.0047L62.9823 34.1037C63.3196 34.21 63.6606 34.3347 64.009 34.4117C80.0543 37.5063 84.3956 26.1727 85.5653 24.508C81.7446 29.9933 75.339 31.3097 67.4813 29.3993C66.8402 29.2391 66.2085 29.0433 65.5893 28.8127C64.8194 28.5421 64.0642 28.2313 63.327 27.8813C61.9316 27.205 60.6054 26.3945 59.367 25.4613C52.327 20.13 47.9673 9.95134 52.5579 1.66101" fill="#0868AC"/>
</svg>
