<svg width="104" height="104" viewBox="0 0 104 104" fill="none" xmlns="http://www.w3.org/2000/svg">
<path d="M31.8348 74.175H29.0192C28.9197 69.4225 28.6455 64.9546 28.1972 60.7679H28.1721L23.8854 74.175H21.7417L17.4806 60.7679H17.4561C17.14 64.7875 16.9408 69.2565 16.8581 74.175H14.2917C14.4571 68.194 14.8728 62.5868 15.5371 57.3528H19.0268L23.0883 69.7136H23.1133L27.1999 57.3528H30.5388C31.2701 63.4834 31.7021 69.0911 31.8348 74.175ZM44.0454 61.7636C42.8991 67.9845 41.3866 72.5047 39.5095 75.3262C38.047 77.4982 36.4447 78.5852 34.6999 78.5852C34.2347 78.5852 33.6607 78.4448 32.9806 78.1663V76.6663C33.3131 76.7141 33.7032 76.7414 34.1515 76.7414C34.9665 76.7414 35.6216 76.5172 36.121 76.0678C36.7184 75.5205 37.0171 74.9051 37.0171 74.2245C37.0171 73.7577 36.7843 72.8034 36.3196 71.3583L33.2298 61.763H35.9959L38.2135 68.9394C38.7119 70.5688 38.9197 71.7065 38.8365 72.3545C40.0492 69.1156 40.8963 65.5841 41.3789 61.7625H44.0454V61.7636Z" fill="#5D87A1"/>
<path d="M81.5239 74.175H73.526V57.3528H76.2164V72.1042H81.5239V74.175ZM71.4324 74.5814L68.3399 73.0553C68.6141 72.83 68.8764 72.5863 69.1125 72.3039C70.427 70.7598 71.0826 68.4764 71.0826 65.4519C71.0826 59.8866 68.8987 57.1025 64.5292 57.1025C62.3867 57.1025 60.7153 57.8087 59.52 59.2217C58.2066 60.7669 57.551 63.0422 57.551 66.0504C57.551 69.0074 58.132 71.1766 59.2947 72.5526C60.3584 73.799 61.9617 74.4231 64.1059 74.4231C64.9057 74.4231 65.6397 74.3252 66.3083 74.1277L70.3345 76.4715L71.4324 74.5814ZM61.4144 70.8088C60.7332 69.7131 60.3926 67.9535 60.3926 65.5275C60.3926 61.2919 61.6794 59.1716 64.2556 59.1716C65.6021 59.1716 66.5891 59.6787 67.2202 60.6907C67.9003 61.7881 68.2425 63.5318 68.2425 65.9241C68.2425 70.1946 66.9547 72.33 64.3801 72.33C63.033 72.3306 62.0461 71.8251 61.4144 70.8088ZM56.3785 69.5123C56.3785 70.9388 55.8551 72.1091 54.8094 73.0259C53.7626 73.9389 52.3589 74.3964 50.5999 74.3964C48.9546 74.3964 47.3594 73.8708 45.8153 72.8251L46.5384 71.3806C47.867 72.046 49.07 72.3768 50.1499 72.3768C51.1635 72.3768 51.9557 72.1521 52.5303 71.7065C53.1042 71.2593 53.4465 70.632 53.4465 69.8387C53.4465 68.8393 52.7495 67.9851 51.4709 67.2696C50.2919 66.6222 47.9339 65.2685 47.9339 65.2685C46.6559 64.3371 46.0161 63.3371 46.0161 61.6896C46.0161 60.3262 46.4932 59.2255 47.4481 58.3882C48.404 57.5476 49.6374 57.1287 51.1494 57.1287C52.7109 57.1287 54.1304 57.547 55.4089 58.3751L54.7604 59.8202C53.6668 59.3555 52.5874 59.1232 51.5226 59.1232C50.6603 59.1232 49.9943 59.3305 49.5313 59.7467C49.0645 60.1613 48.7767 60.6918 48.7767 61.3425C48.7767 62.3371 49.4883 63.2021 50.8017 63.9317C51.9965 64.5803 54.4133 65.9573 54.4133 65.9573C55.724 66.8871 56.3785 67.8779 56.3785 69.5123Z" fill="#F8981D"/>
<path d="M84.9015 51.7183C83.2747 51.677 82.0152 51.8408 80.958 52.288C80.6528 52.4099 80.1675 52.4099 80.1251 52.7956C80.2899 52.9588 80.309 53.2222 80.452 53.4474C80.6958 53.8538 81.1207 54.4006 81.5086 54.6857C81.9346 55.0122 82.3623 55.3353 82.8106 55.6199C83.6011 56.109 84.4972 56.3936 85.2676 56.881C85.7165 57.1645 86.1626 57.5312 86.612 57.8364C86.8329 57.9991 86.9744 58.263 87.2611 58.3647V58.3027C87.1175 58.1199 87.0767 57.8555 86.9358 57.652L86.3253 57.0633C85.7355 56.2711 85.0027 55.5796 84.2121 55.0116C83.5614 54.5633 82.1381 53.9539 81.8742 53.2042L81.8329 53.1629C82.2801 53.121 82.8106 52.9588 83.2355 52.8342C83.927 52.652 84.5576 52.6933 85.2671 52.5111C85.5935 52.4294 85.9173 52.3272 86.2448 52.2265V52.0432C85.877 51.677 85.6147 51.1906 85.2279 50.8446C84.1931 49.9507 83.0527 49.0763 81.8742 48.3446C81.2431 47.937 80.4314 47.6748 79.7594 47.3282C79.5173 47.2058 79.1093 47.1454 78.9667 46.9419C78.6022 46.4947 78.3971 45.906 78.1327 45.3766C77.5451 44.2597 76.9743 43.0203 76.4673 41.8391C76.1005 41.0469 75.8775 40.2558 75.4303 39.523C73.3356 36.0681 71.0608 33.9756 67.5646 31.9217C66.8132 31.4941 65.9193 31.3118 64.9645 31.0877L63.4394 31.0071C63.1141 30.8646 62.7882 30.4778 62.5042 30.2949C61.3442 29.5637 58.3578 27.9788 57.5047 30.0713C56.9552 31.394 58.3175 32.6943 58.7854 33.3651C59.1309 33.8309 59.5787 34.3608 59.8203 34.8896C59.9634 35.2351 60.0036 35.6018 60.1467 35.9669C60.4721 36.8614 60.7762 37.8565 61.2038 38.6911C61.4269 39.1165 61.6701 39.5638 61.9552 39.949C62.1184 40.1742 62.4024 40.2738 62.4645 40.641C62.181 41.0458 62.1587 41.6568 61.996 42.165C61.2648 44.4615 61.5504 47.3065 62.5869 48.9942C62.9111 49.5023 63.6848 50.6209 64.7196 50.1922C65.6359 49.8266 65.4329 48.6683 65.6963 47.6525C65.7566 47.4071 65.7169 47.2461 65.8388 47.085V47.1247C66.1223 47.6933 66.4084 48.2412 66.6712 48.8114C67.3018 49.8065 68.3998 50.8435 69.3143 51.5328C69.8013 51.9006 70.187 52.5296 70.7969 52.7543V52.6933H70.7567C70.6332 52.5111 70.4525 52.4294 70.2904 52.288C69.9237 51.9218 69.5178 51.4746 69.2333 51.0687C68.3813 49.93 67.6272 48.6694 66.958 47.3685C66.6304 46.7374 66.3481 46.0475 66.0842 45.4174C65.9612 45.1742 65.9612 44.8075 65.7572 44.6851C65.4514 45.1318 65.0058 45.5186 64.7828 46.066C64.3959 46.9414 64.3557 48.0181 64.212 49.1378L64.132 49.177C63.4846 49.0143 63.2594 48.3445 63.0134 47.776C62.4046 46.332 62.3023 44.0143 62.8306 42.3483C62.9721 41.9223 63.5842 40.5806 63.3399 40.1748C63.2175 39.7857 62.8105 39.5643 62.5874 39.258C62.3252 38.8728 62.0379 38.3853 61.8551 37.9577C61.3676 36.82 61.1222 35.5594 60.5972 34.4223C60.3518 33.8924 59.9258 33.3439 59.5809 32.8559C59.1935 32.3075 58.7675 31.9212 58.4612 31.271C58.36 31.0474 58.218 30.6818 58.3807 30.4386C58.4204 30.2754 58.5031 30.2144 58.6652 30.1736C58.9285 29.9511 59.681 30.234 59.9449 30.3564C60.6984 30.6611 61.3284 30.9457 61.9574 31.3722C62.2419 31.5762 62.5472 31.9625 62.9122 32.0643H63.3399C63.989 32.2057 64.7207 32.1034 65.3317 32.2873C66.4084 32.6334 67.384 33.141 68.2588 33.6889C70.921 35.3771 73.1163 37.7759 74.5984 40.641C74.8416 41.1078 74.9449 41.5355 75.1669 42.0224C75.5951 43.0192 76.1245 44.0355 76.5494 45.011C76.9765 45.9659 77.3835 46.9408 77.9934 47.7341C78.2975 48.1607 79.5195 48.3843 80.0674 48.6079C80.4727 48.7901 81.1038 48.9523 81.4695 49.1759C82.161 49.6019 82.8498 50.091 83.4999 50.5595C83.8237 50.8032 84.8411 51.3114 84.9015 51.7183ZM64.169 34.0556C63.8884 34.0527 63.6087 34.0871 63.3372 34.1579V34.1987H63.3763C63.5401 34.5235 63.8246 34.7487 64.0276 35.0322C64.1913 35.3581 64.3334 35.6813 64.4939 36.0066L64.533 35.9664C64.8198 35.7634 64.9623 35.4381 64.9623 34.95C64.8388 34.8064 64.8198 34.666 64.7169 34.5235C64.5972 34.32 64.3334 34.2188 64.169 34.0556Z" fill="#5D87A1"/>
<path d="M86.8372 74.1723H87.2583V72.1114H86.6266L86.1114 73.5178L85.5515 72.1114H84.9433V74.1723H85.341V72.6043H85.3633L85.9498 74.1723H86.2528L86.8372 72.6043V74.1723ZM83.4449 74.1723H83.8905V72.4607H84.4737V72.1108H82.8372V72.4607H83.4438L83.4449 74.1723Z" fill="#F8981D"/>
</svg>
