<svg width="98" height="61" viewBox="0 0 98 61" fill="none" xmlns="http://www.w3.org/2000/svg">
<path d="M48.5322 59.9377C48.2186 59.9377 47.9067 59.8558 47.6322 59.6969L44.7671 58.0018C44.3395 57.7623 44.5485 57.6777 44.6894 57.6285C45.2601 57.4304 45.3756 57.3847 45.9848 57.0393C46.0481 57.0037 46.1323 57.0172 46.1978 57.0556L48.3988 58.3624C48.4787 58.4067 48.5912 58.4067 48.6645 58.3624L57.2453 53.4098C57.3252 53.3643 57.3763 53.2723 57.3763 53.1776V43.2752C57.3763 43.1783 57.325 43.0879 57.2431 43.0387L48.666 38.0904C48.5869 38.044 48.4815 38.044 48.4016 38.0904L39.8266 43.0402C39.7432 43.0879 39.6904 43.1814 39.6904 43.2752V53.1776C39.6904 53.2723 39.743 53.3621 39.8257 53.407L42.1764 54.7651C43.4518 55.4028 44.2325 54.6517 44.2325 53.8972V44.12C44.2325 43.9819 44.3438 43.8728 44.4819 43.8728H45.57C45.7062 43.8728 45.8187 43.9819 45.8187 44.12V53.8972C45.8187 55.5994 44.8917 56.5756 43.278 56.5756C42.7821 56.5756 42.3916 56.5756 41.3015 56.0384L39.0514 54.743C38.4957 54.4217 38.1514 53.8209 38.1514 53.1776V43.2752C38.1514 42.6319 38.4955 42.0312 39.0514 41.7113L47.6322 36.7529C48.1752 36.4458 48.8969 36.4458 49.4356 36.7529L58.0157 41.7113C58.5714 42.0327 58.917 42.6319 58.917 43.2752V53.1776C58.917 53.8209 58.5714 54.4195 58.0157 54.743L49.4356 59.6971C49.1613 59.8558 48.8501 59.9377 48.5322 59.9377Z" fill="#699F63"/>
<path d="M51.1827 53.1156C47.4277 53.1156 46.6412 51.3921 46.6412 49.9464C46.6412 49.8089 46.7516 49.6992 46.8893 49.6992H47.9986C48.1226 49.6992 48.2259 49.7883 48.2452 49.9094C48.4128 51.0388 48.9121 51.6088 51.1829 51.6088C52.9905 51.6088 53.7601 51.1999 53.7601 50.2409C53.7601 49.688 53.5421 49.2775 50.7327 49.0024C48.385 48.7702 46.9329 48.2515 46.9329 46.3732C46.9329 44.6417 48.3921 43.6093 50.839 43.6093C53.5879 43.6093 54.9481 44.5633 55.1204 46.6103C55.1268 46.6807 55.1019 46.7486 55.0549 46.8012C55.0078 46.8504 54.9423 46.8803 54.8732 46.8803H53.7595C53.6441 46.8803 53.5421 46.7984 53.5187 46.6865C53.2515 45.4981 52.6018 45.1184 50.839 45.1184C48.8653 45.1184 48.6359 45.8059 48.6359 46.321C48.6359 46.9451 48.9068 47.1268 51.5714 47.4795C54.2084 47.8279 55.461 48.3217 55.461 50.1749C55.4606 52.0446 53.9017 53.1156 51.1827 53.1156Z" fill="#699F63"/>
<path d="M63.5558 42.7303C63.5558 43.6401 62.812 44.3839 61.9021 44.3839C61.0007 44.3839 60.2485 43.6489 60.2485 42.7303C60.2485 41.794 61.0187 41.0762 61.9021 41.0762C62.7948 41.0762 63.5558 41.794 63.5558 42.7303ZM60.5155 42.7255C60.5155 43.4958 61.1366 44.1171 61.8976 44.1171C62.6678 44.1171 63.2892 43.4827 63.2892 42.7255C63.2892 41.9557 62.6595 41.3432 61.8976 41.3432C61.1452 41.3434 60.5155 41.9467 60.5155 42.7255ZM61.2807 41.8026H61.92C62.1386 41.8026 62.5675 41.8026 62.5675 42.2927C62.5675 42.634 62.3489 42.7038 62.217 42.7477C62.4713 42.7653 62.4885 42.9315 62.5233 43.1678C62.5411 43.3164 62.5675 43.5703 62.6195 43.6577H62.2263C62.217 43.5705 62.1558 43.0978 62.1558 43.0718C62.1302 42.9665 62.0946 42.9143 61.9636 42.9143H61.6401V43.6577H61.281V41.8026H61.2807ZM61.6313 42.6162H61.9197C62.1556 42.6162 62.1998 42.4502 62.1998 42.3539C62.1998 42.0999 62.0246 42.0999 61.9283 42.0999H61.6313V42.6162Z" fill="#699F63"/>
<path d="M21.9606 21.1947C21.9606 20.7993 21.7525 20.4359 21.4112 20.24L12.3138 15.0045C12.16 14.9141 11.9876 14.867 11.8129 14.8597C11.7973 14.8597 11.7318 14.8597 11.7189 14.8597C11.5451 14.8668 11.3726 14.9139 11.2165 15.0045L2.1191 20.24C1.77995 20.4359 1.56903 20.7993 1.56903 21.1947L1.58901 35.2924C1.58901 35.4883 1.69082 35.6708 1.86329 35.7668C2.03212 35.868 2.24089 35.868 2.40907 35.7668L7.81573 32.6709C8.15767 32.4679 8.36581 32.1094 8.36581 31.7177V25.1312C8.36581 24.7385 8.57372 24.3751 8.91437 24.1801L11.2165 22.8542C11.3881 22.7552 11.5756 22.7066 11.7672 22.7066C11.9545 22.7066 12.1469 22.7552 12.3136 22.8542L14.6151 24.1801C14.9557 24.3753 15.1645 24.7387 15.1645 25.1312V31.7177C15.1645 32.1094 15.3754 32.4701 15.7152 32.6709L21.1204 35.7668C21.2899 35.868 21.5016 35.868 21.6698 35.7668C21.8374 35.6706 21.9428 35.4883 21.9428 35.2924L21.9606 21.1947Z" fill="#333333"/>
<path d="M65.734 1.81524C65.5636 1.72052 65.3559 1.72267 65.1878 1.82126C65.02 1.92006 64.9167 2.10027 64.9167 2.29508V16.2563C64.9167 16.3936 64.8432 16.5208 64.7247 16.5895C64.6057 16.6582 64.459 16.6582 64.3398 16.5895L62.0613 15.2767C61.7213 15.0808 61.3031 15.0812 60.9633 15.2771L51.8623 20.5294C51.522 20.7257 51.3126 21.0885 51.3126 21.4809V31.9875C51.3126 32.3801 51.522 32.7427 51.8621 32.9394L60.9626 38.1955C61.3029 38.3918 61.7217 38.3918 62.0619 38.1955L71.1638 32.9394C71.5038 32.7429 71.7133 32.3801 71.7133 31.9875V5.797C71.7133 5.39878 71.4978 5.03128 71.1497 4.83711L65.734 1.81524ZM64.8896 28.5354C64.8896 28.6333 64.8372 28.7242 64.7522 28.7729L61.6274 30.5742C61.5426 30.6229 61.438 30.6229 61.3531 30.5742L58.2284 28.7729C58.1433 28.7242 58.0909 28.6333 58.0909 28.5354V24.9272C58.0909 24.8292 58.1433 24.7384 58.2282 24.6892L61.3529 22.8843C61.438 22.8351 61.5428 22.8351 61.6279 22.8843L64.7526 24.6892C64.8374 24.7384 64.8898 24.8292 64.8898 24.9272L64.8896 28.5354Z" fill="#333333"/>
<path d="M96.0387 24.8328C96.3772 24.6363 96.5855 24.2741 96.5855 23.8826V21.3365C96.5855 20.9449 96.3772 20.5826 96.0383 20.386L86.9959 15.1359C86.6556 14.9381 86.2355 14.9379 85.8946 15.1344L76.797 20.3867C76.457 20.583 76.2476 20.9455 76.2476 21.3382V31.842C76.2476 32.237 76.4596 32.6015 76.8026 32.7967L85.8437 37.9484C86.1771 38.1387 86.5858 38.1409 86.9213 37.9544L92.3899 34.915C92.5634 34.8185 92.6714 34.6364 92.6723 34.4384C92.6738 34.2403 92.5683 34.0569 92.3965 33.9581L83.2411 28.7033C83.0702 28.6053 82.9651 28.4232 82.9651 28.2265V24.9346C82.9651 24.7383 83.0697 24.5566 83.2401 24.4586L86.0895 22.8159C86.2589 22.718 86.4686 22.718 86.638 22.8159L89.4889 24.4586C89.6592 24.5566 89.7638 24.7383 89.7638 24.9346V27.5245C89.7638 27.7213 89.8691 27.903 90.0392 28.0009C90.2095 28.0993 90.4194 28.0984 90.5893 27.9999L96.0387 24.8328Z" fill="#333333"/>
<path d="M86.3112 24.3407C86.3765 24.3029 86.4568 24.3029 86.5221 24.3407L88.2683 25.3481C88.3336 25.3859 88.3738 25.4553 88.3738 25.5309V27.5473C88.3738 27.6229 88.3336 27.6923 88.2683 27.7301L86.5221 28.7375C86.4568 28.7753 86.3765 28.7753 86.3112 28.7375L84.5662 27.7301C84.5009 27.6923 84.4608 27.6229 84.4608 27.5473V25.5309C84.4608 25.4553 84.5009 25.3859 84.5662 25.3481L86.3112 24.3407Z" fill="#699F63"/>
<path d="M37.1842 15.1893C36.8461 14.994 36.4294 14.994 36.0916 15.1893L27.0417 20.4117C26.7032 20.6069 26.4948 20.9675 26.4948 21.3584V31.8113C26.4948 32.2018 26.7032 32.5625 27.0412 32.7581L36.0911 37.9848C36.4294 38.18 36.8461 38.18 37.1846 37.9848L46.2324 32.7581C46.5705 32.5627 46.7786 32.2018 46.7786 31.8113V21.358C46.7786 20.9675 46.5703 20.6069 46.232 20.4117L37.1842 15.1893Z" fill="url(#paint0_linear_215_5)"/>
<path d="M46.2497 20.4116L37.1745 15.1893C37.0849 15.1375 36.9891 15.1006 36.8905 15.0763L26.7009 32.5068C26.7888 32.6056 26.8917 32.6918 27.0059 32.7579L36.0964 37.9846C36.354 38.1332 36.66 38.168 36.9408 38.0903L46.4931 20.5987C46.4205 20.527 46.3391 20.4632 46.2497 20.4116Z" fill="url(#paint1_linear_215_5)"/>
<path d="M35.7896 13.2695L35.665 13.3406H35.8312L35.7896 13.2695Z" fill="url(#paint2_linear_215_5)"/>
<path d="M46.2549 32.7582C46.5187 32.6057 46.7154 32.352 46.7899 32.0627L36.8416 15.0669C36.5819 15.0151 36.3063 15.0544 36.0724 15.1895L27.0582 20.3805L36.796 38.1208C36.935 38.1019 37.0712 38.0568 37.1958 37.9851L46.2549 32.7582Z" fill="url(#paint3_linear_215_5)"/>
<path d="M47.0986 32.5899L47.0387 32.4874V32.6247L47.0986 32.5899Z" fill="url(#paint4_linear_215_5)"/>
<path d="M46.2549 32.7581L37.1958 37.9848C37.0712 38.0567 36.935 38.1016 36.7961 38.1205L36.9765 38.4492L47.0387 32.6247V32.4875L46.79 32.0626C46.7155 32.3519 46.5187 32.6054 46.2549 32.7581Z" fill="url(#paint5_linear_215_5)"/>
<path d="M46.2549 32.7581L37.1958 37.9848C37.0712 38.0567 36.935 38.1016 36.7961 38.1205L36.9765 38.4492L47.0387 32.6247V32.4875L46.79 32.0626C46.7155 32.3519 46.5187 32.6054 46.2549 32.7581Z" fill="url(#paint6_linear_215_5)"/>
<defs>
<linearGradient id="paint0_linear_215_5" x1="40.3163" y1="19.0786" x2="32.1403" y2="35.7575" gradientUnits="userSpaceOnUse">
<stop stop-color="#41873F"/>
<stop offset="0.3288" stop-color="#418B3D"/>
<stop offset="0.6352" stop-color="#419637"/>
<stop offset="0.9319" stop-color="#3FA92D"/>
<stop offset="1" stop-color="#3FAE2A"/>
</linearGradient>
<linearGradient id="paint1_linear_215_5" x1="35.2591" y1="27.8073" x2="58.2" y2="10.8572" gradientUnits="userSpaceOnUse">
<stop offset="0.1376" stop-color="#41873F"/>
<stop offset="0.4032" stop-color="#54A044"/>
<stop offset="0.7136" stop-color="#66B848"/>
<stop offset="0.9081" stop-color="#6CC04A"/>
</linearGradient>
<linearGradient id="paint2_linear_215_5" x1="26.1746" y1="13.3051" x2="47.0987" y2="13.3051" gradientUnits="userSpaceOnUse">
<stop offset="0.0919" stop-color="#6CC04A"/>
<stop offset="0.2864" stop-color="#66B848"/>
<stop offset="0.5968" stop-color="#54A044"/>
<stop offset="0.8624" stop-color="#41873F"/>
</linearGradient>
<linearGradient id="paint3_linear_215_5" x1="26.1746" y1="26.5829" x2="47.0987" y2="26.5829" gradientUnits="userSpaceOnUse">
<stop offset="0.0919" stop-color="#6CC04A"/>
<stop offset="0.2864" stop-color="#66B848"/>
<stop offset="0.5968" stop-color="#54A044"/>
<stop offset="0.8624" stop-color="#41873F"/>
</linearGradient>
<linearGradient id="paint4_linear_215_5" x1="26.1741" y1="32.5561" x2="47.0987" y2="32.5561" gradientUnits="userSpaceOnUse">
<stop offset="0.0919" stop-color="#6CC04A"/>
<stop offset="0.2864" stop-color="#66B848"/>
<stop offset="0.5968" stop-color="#54A044"/>
<stop offset="0.8624" stop-color="#41873F"/>
</linearGradient>
<linearGradient id="paint5_linear_215_5" x1="26.1746" y1="35.2559" x2="47.0987" y2="35.2559" gradientUnits="userSpaceOnUse">
<stop offset="0.0919" stop-color="#6CC04A"/>
<stop offset="0.2864" stop-color="#66B848"/>
<stop offset="0.5968" stop-color="#54A044"/>
<stop offset="0.8624" stop-color="#41873F"/>
</linearGradient>
<linearGradient id="paint6_linear_215_5" x1="50.1471" y1="18.5841" x2="37.2424" y2="44.9095" gradientUnits="userSpaceOnUse">
<stop stop-color="#41873F"/>
<stop offset="0.3288" stop-color="#418B3D"/>
<stop offset="0.6352" stop-color="#419637"/>
<stop offset="0.9319" stop-color="#3FA92D"/>
<stop offset="1" stop-color="#3FAE2A"/>
</linearGradient>
</defs>
</svg>
