<svg width="41" height="36" viewBox="0 0 41 36" fill="none" xmlns="http://www.w3.org/2000/svg">
<mask id="path-1-inside-1_701_13" fill="white">
<path d="M21.6253 32.5277C21.2617 32.2062 20.8824 31.8837 20.5201 31.5265C20.2305 31.7941 19.9591 32.045 19.6719 32.2947C16.0863 35.3857 12.3904 36.6725 10.1995 35.4215C8.0801 34.2243 7.4124 30.6876 8.2607 26.2382C8.3511 25.7559 8.4598 25.2736 8.5866 24.7913C8.2061 24.6793 7.8438 24.5763 7.4815 24.4553C2.9701 22.9154 0 20.4147 0 17.9128C0 15.5016 2.7713 13.161 7.0998 11.6603C7.5845 11.499 8.0959 11.3389 8.6218 11.1955C8.5006 10.7308 8.4049 10.2839 8.314 9.85161C7.4076 5.33501 8.0413 1.72671 10.1789 0.511608C12.4061 -0.775192 16.102 0.601208 19.8137 3.83431C20.0306 4.03031 20.2487 4.24541 20.4838 4.45931C20.8279 4.13781 21.1539 3.81641 21.498 3.53081C25.0122 0.507107 28.5069 -0.757293 30.6445 0.457807C32.8717 1.70761 33.5248 5.56681 32.5288 10.3377C32.4742 10.6423 32.4076 10.9279 32.33 11.2336C32.7832 11.359 33.2352 11.5013 33.6521 11.6446C38.0714 13.1453 40.9336 15.4859 40.8972 17.9509C40.8972 20.4695 37.8363 22.9535 33.1419 24.49C32.8887 24.5617 32.6354 24.6513 32.3809 24.7219C32.49 25.0791 32.5615 25.4364 32.6342 25.7936C33.5757 30.4211 32.8511 34.2086 30.6602 35.4596C30.0848 35.7797 29.4231 35.9428 28.7517 35.93C26.7438 35.9266 24.1942 34.7048 21.6253 32.5277ZM25.1757 25.9706C24.1353 27.4663 22.9919 28.8987 21.7525 30.2587C22.0966 30.5947 22.4408 30.9027 22.7849 31.1882C25.7731 33.7248 28.5263 34.6723 29.8132 33.9399C30.2062 33.6271 30.5273 33.2446 30.7575 32.815C30.9877 32.3855 31.1223 31.9176 31.1534 31.4391C31.4149 29.6661 31.3411 27.8647 30.9353 26.115C30.8808 25.7936 30.8141 25.4722 30.7184 25.1329C28.8935 25.5276 27.0417 25.8075 25.1757 25.9706ZM9.9971 26.5428C9.2555 30.3505 9.7984 33.1884 11.0877 33.9219C11.5445 34.0984 12.0377 34.1798 12.5323 34.1604C13.0269 34.1411 13.5109 34.0214 13.9499 33.81C15.6578 33.1466 17.2132 32.1884 18.5328 30.9867C18.8043 30.7716 19.0575 30.5219 19.3302 30.2721C18.0635 28.9117 16.8898 27.4795 15.816 25.984C13.9572 25.8405 12.1113 25.5786 10.2916 25.2001C10.1789 25.6671 10.088 26.1128 9.9971 26.5428ZM20.5395 29.0436C21.3369 28.1678 22.133 27.2036 22.9303 26.1318C22.133 26.1677 21.3005 26.1856 20.4668 26.1856C19.6331 26.1856 18.8552 26.1677 18.076 26.1318C18.8903 27.1845 19.7058 28.1678 20.5383 29.0436H20.5395ZM16.7346 11.6065C16.0463 12.5887 15.3762 13.6224 14.7424 14.7154C14.1087 15.7872 13.5306 16.8769 13.0035 17.9632C13.5476 19.0349 14.1268 20.1246 14.7606 21.2333C15.3943 22.3051 16.0645 23.3612 16.7527 24.359C17.9475 24.4307 19.1981 24.471 20.4656 24.471C21.7331 24.471 23.0006 24.4352 24.2148 24.3467C24.8667 23.3645 25.5368 22.3096 26.1718 21.2199C26.8068 20.1302 27.403 19.0226 27.9289 17.9509C27.403 16.897 26.8056 15.8073 26.1718 14.7165C25.5381 13.6258 24.868 12.5887 24.1978 11.6077C22.9861 11.5181 21.7343 11.4643 20.4668 11.4643C19.1993 11.4643 17.9488 11.517 16.7346 11.6065ZM10.7581 23.5583C12.0008 23.8206 13.2587 24.0177 14.5255 24.1485C14.0905 23.4698 13.6567 22.79 13.2398 22.0755C12.8411 21.3789 12.4425 20.6823 12.0802 19.9857C11.5555 21.1997 11.1204 22.3992 10.7581 23.5583ZM27.6926 22.0576C27.2757 22.7721 26.8589 23.4508 26.4433 24.1126C27.7291 23.9637 29.005 23.7491 30.2652 23.4698C29.8717 22.2638 29.4123 21.077 28.8886 19.9141C28.5081 20.6286 28.1094 21.3431 27.6926 22.0576ZM7.6608 13.3032C3.9661 14.59 1.7389 16.4636 1.7389 17.9307C1.8094 18.4027 1.98 18.8572 2.2409 19.2681C2.5019 19.6789 2.8481 20.0382 3.2597 20.3251C4.6733 21.4237 6.2944 22.2715 8.0413 22.8258C8.3673 22.9378 8.7114 23.0229 9.0556 23.1305C9.6119 21.3731 10.2833 19.6486 11.0659 17.9665C10.2818 16.3132 9.6163 14.614 9.0738 12.8799C8.585 13.0008 8.114 13.1419 7.6608 13.3032ZM29.8847 17.9307C30.6884 19.5914 31.3765 21.2979 31.9447 23.0397C32.181 22.9681 32.4161 22.8964 32.633 22.8247C36.6718 21.5032 39.1765 19.484 39.1899 17.9117C39.1899 16.4468 36.8717 14.5519 33.0862 13.2663C32.7057 13.1419 32.29 13.0165 31.8744 12.8911C31.3257 14.6077 30.6611 16.2909 29.8847 17.9307ZM27.6756 13.8217C28.0925 14.5362 28.4911 15.2339 28.8523 15.9305C29.3555 14.7921 29.7907 13.629 30.1561 12.4465C28.9259 12.1702 27.6804 11.9556 26.4251 11.8037C26.8601 12.4633 27.2757 13.1251 27.6744 13.8217H27.6756ZM10.7763 12.4319C11.1398 13.5754 11.5736 14.7367 12.0802 15.9328C12.4437 15.2362 12.8411 14.5396 13.2398 13.843C13.6385 13.1464 14.0541 12.4678 14.4892 11.8059C13.1853 11.9638 11.9541 12.1777 10.7763 12.4319ZM22.6395 4.83891C22.3317 5.10661 22.0239 5.39211 21.7149 5.67881C22.9727 7.02221 24.1286 8.44411 25.1745 9.93451C27.0177 10.099 28.8457 10.3856 30.6445 10.7924C30.7172 10.5247 30.7656 10.2559 30.8262 9.98831C31.6745 5.87931 31.1522 2.73461 29.7756 1.94951C29.4735 1.79281 29.1307 1.71531 28.7844 1.72551C27.3048 1.71881 25.034 2.78391 22.6395 4.83551V4.83891ZM11.0477 1.99431C9.762 2.72671 9.2543 5.65641 10.0153 9.51571C10.1062 9.92671 10.1971 10.3366 10.3049 10.7655C12.106 10.3737 13.9334 10.0931 15.7748 9.92561C16.8245 8.43331 17.9866 7.01121 19.2526 5.66991C19.0539 5.47281 18.8358 5.29471 18.637 5.11551C16.1166 2.91271 13.693 1.75021 12.1104 1.75021C11.7385 1.73851 11.3704 1.82301 11.0477 1.99431ZM22.8928 9.78331C22.1458 8.78451 21.34 7.82441 20.4789 6.90741C19.6646 7.78201 18.8491 8.74741 18.0554 9.78331C18.8527 9.74751 19.6489 9.72961 20.4644 9.72961C21.2799 9.72961 22.0966 9.74411 22.894 9.78331H22.8928ZM16.8436 18.0024C16.8266 17.5432 16.9079 17.0854 17.0827 16.6553C17.2574 16.2252 17.5224 15.8312 17.8622 15.4959C18.2021 15.1606 18.6102 14.8906 19.0631 14.7013C19.5161 14.512 20.0051 14.4072 20.502 14.3929C21.5045 14.4245 22.4526 14.8221 23.1384 15.4988C23.8242 16.1754 24.1917 17.0757 24.1603 18.0024C24.1926 18.9298 23.8254 19.8311 23.1393 20.5085C22.4531 21.1859 21.5042 21.5839 20.5007 21.6152C20.0036 21.6009 19.5144 21.496 19.0612 21.3065C18.6081 21.117 18.1999 20.8466 17.8601 20.5109C17.5203 20.1752 17.2556 19.7808 17.0811 19.3503C16.9067 18.9199 16.826 18.4618 16.8436 18.0024Z"/>
</mask>
<path d="M21.6253 32.5277C21.2617 32.2062 20.8824 31.8837 20.5201 31.5265C20.2305 31.7941 19.9591 32.045 19.6719 32.2947C16.0863 35.3857 12.3904 36.6725 10.1995 35.4215C8.0801 34.2243 7.4124 30.6876 8.2607 26.2382C8.3511 25.7559 8.4598 25.2736 8.5866 24.7913C8.2061 24.6793 7.8438 24.5763 7.4815 24.4553C2.9701 22.9154 0 20.4147 0 17.9128C0 15.5016 2.7713 13.161 7.0998 11.6603C7.5845 11.499 8.0959 11.3389 8.6218 11.1955C8.5006 10.7308 8.4049 10.2839 8.314 9.85161C7.4076 5.33501 8.0413 1.72671 10.1789 0.511608C12.4061 -0.775192 16.102 0.601208 19.8137 3.83431C20.0306 4.03031 20.2487 4.24541 20.4838 4.45931C20.8279 4.13781 21.1539 3.81641 21.498 3.53081C25.0122 0.507107 28.5069 -0.757293 30.6445 0.457807C32.8717 1.70761 33.5248 5.56681 32.5288 10.3377C32.4742 10.6423 32.4076 10.9279 32.33 11.2336C32.7832 11.359 33.2352 11.5013 33.6521 11.6446C38.0714 13.1453 40.9336 15.4859 40.8972 17.9509C40.8972 20.4695 37.8363 22.9535 33.1419 24.49C32.8887 24.5617 32.6354 24.6513 32.3809 24.7219C32.49 25.0791 32.5615 25.4364 32.6342 25.7936C33.5757 30.4211 32.8511 34.2086 30.6602 35.4596C30.0848 35.7797 29.4231 35.9428 28.7517 35.93C26.7438 35.9266 24.1942 34.7048 21.6253 32.5277ZM25.1757 25.9706C24.1353 27.4663 22.9919 28.8987 21.7525 30.2587C22.0966 30.5947 22.4408 30.9027 22.7849 31.1882C25.7731 33.7248 28.5263 34.6723 29.8132 33.9399C30.2062 33.6271 30.5273 33.2446 30.7575 32.815C30.9877 32.3855 31.1223 31.9176 31.1534 31.4391C31.4149 29.6661 31.3411 27.8647 30.9353 26.115C30.8808 25.7936 30.8141 25.4722 30.7184 25.1329C28.8935 25.5276 27.0417 25.8075 25.1757 25.9706ZM9.9971 26.5428C9.2555 30.3505 9.7984 33.1884 11.0877 33.9219C11.5445 34.0984 12.0377 34.1798 12.5323 34.1604C13.0269 34.1411 13.5109 34.0214 13.9499 33.81C15.6578 33.1466 17.2132 32.1884 18.5328 30.9867C18.8043 30.7716 19.0575 30.5219 19.3302 30.2721C18.0635 28.9117 16.8898 27.4795 15.816 25.984C13.9572 25.8405 12.1113 25.5786 10.2916 25.2001C10.1789 25.6671 10.088 26.1128 9.9971 26.5428ZM20.5395 29.0436C21.3369 28.1678 22.133 27.2036 22.9303 26.1318C22.133 26.1677 21.3005 26.1856 20.4668 26.1856C19.6331 26.1856 18.8552 26.1677 18.076 26.1318C18.8903 27.1845 19.7058 28.1678 20.5383 29.0436H20.5395ZM16.7346 11.6065C16.0463 12.5887 15.3762 13.6224 14.7424 14.7154C14.1087 15.7872 13.5306 16.8769 13.0035 17.9632C13.5476 19.0349 14.1268 20.1246 14.7606 21.2333C15.3943 22.3051 16.0645 23.3612 16.7527 24.359C17.9475 24.4307 19.1981 24.471 20.4656 24.471C21.7331 24.471 23.0006 24.4352 24.2148 24.3467C24.8667 23.3645 25.5368 22.3096 26.1718 21.2199C26.8068 20.1302 27.403 19.0226 27.9289 17.9509C27.403 16.897 26.8056 15.8073 26.1718 14.7165C25.5381 13.6258 24.868 12.5887 24.1978 11.6077C22.9861 11.5181 21.7343 11.4643 20.4668 11.4643C19.1993 11.4643 17.9488 11.517 16.7346 11.6065ZM10.7581 23.5583C12.0008 23.8206 13.2587 24.0177 14.5255 24.1485C14.0905 23.4698 13.6567 22.79 13.2398 22.0755C12.8411 21.3789 12.4425 20.6823 12.0802 19.9857C11.5555 21.1997 11.1204 22.3992 10.7581 23.5583ZM27.6926 22.0576C27.2757 22.7721 26.8589 23.4508 26.4433 24.1126C27.7291 23.9637 29.005 23.7491 30.2652 23.4698C29.8717 22.2638 29.4123 21.077 28.8886 19.9141C28.5081 20.6286 28.1094 21.3431 27.6926 22.0576ZM7.6608 13.3032C3.9661 14.59 1.7389 16.4636 1.7389 17.9307C1.8094 18.4027 1.98 18.8572 2.2409 19.2681C2.5019 19.6789 2.8481 20.0382 3.2597 20.3251C4.6733 21.4237 6.2944 22.2715 8.0413 22.8258C8.3673 22.9378 8.7114 23.0229 9.0556 23.1305C9.6119 21.3731 10.2833 19.6486 11.0659 17.9665C10.2818 16.3132 9.6163 14.614 9.0738 12.8799C8.585 13.0008 8.114 13.1419 7.6608 13.3032ZM29.8847 17.9307C30.6884 19.5914 31.3765 21.2979 31.9447 23.0397C32.181 22.9681 32.4161 22.8964 32.633 22.8247C36.6718 21.5032 39.1765 19.484 39.1899 17.9117C39.1899 16.4468 36.8717 14.5519 33.0862 13.2663C32.7057 13.1419 32.29 13.0165 31.8744 12.8911C31.3257 14.6077 30.6611 16.2909 29.8847 17.9307ZM27.6756 13.8217C28.0925 14.5362 28.4911 15.2339 28.8523 15.9305C29.3555 14.7921 29.7907 13.629 30.1561 12.4465C28.9259 12.1702 27.6804 11.9556 26.4251 11.8037C26.8601 12.4633 27.2757 13.1251 27.6744 13.8217H27.6756ZM10.7763 12.4319C11.1398 13.5754 11.5736 14.7367 12.0802 15.9328C12.4437 15.2362 12.8411 14.5396 13.2398 13.843C13.6385 13.1464 14.0541 12.4678 14.4892 11.8059C13.1853 11.9638 11.9541 12.1777 10.7763 12.4319ZM22.6395 4.83891C22.3317 5.10661 22.0239 5.39211 21.7149 5.67881C22.9727 7.02221 24.1286 8.44411 25.1745 9.93451C27.0177 10.099 28.8457 10.3856 30.6445 10.7924C30.7172 10.5247 30.7656 10.2559 30.8262 9.98831C31.6745 5.87931 31.1522 2.73461 29.7756 1.94951C29.4735 1.79281 29.1307 1.71531 28.7844 1.72551C27.3048 1.71881 25.034 2.78391 22.6395 4.83551V4.83891ZM11.0477 1.99431C9.762 2.72671 9.2543 5.65641 10.0153 9.51571C10.1062 9.92671 10.1971 10.3366 10.3049 10.7655C12.106 10.3737 13.9334 10.0931 15.7748 9.92561C16.8245 8.43331 17.9866 7.01121 19.2526 5.66991C19.0539 5.47281 18.8358 5.29471 18.637 5.11551C16.1166 2.91271 13.693 1.75021 12.1104 1.75021C11.7385 1.73851 11.3704 1.82301 11.0477 1.99431ZM22.8928 9.78331C22.1458 8.78451 21.34 7.82441 20.4789 6.90741C19.6646 7.78201 18.8491 8.74741 18.0554 9.78331C18.8527 9.74751 19.6489 9.72961 20.4644 9.72961C21.2799 9.72961 22.0966 9.74411 22.894 9.78331H22.8928ZM16.8436 18.0024C16.8266 17.5432 16.9079 17.0854 17.0827 16.6553C17.2574 16.2252 17.5224 15.8312 17.8622 15.4959C18.2021 15.1606 18.6102 14.8906 19.0631 14.7013C19.5161 14.512 20.0051 14.4072 20.502 14.3929C21.5045 14.4245 22.4526 14.8221 23.1384 15.4988C23.8242 16.1754 24.1917 17.0757 24.1603 18.0024C24.1926 18.9298 23.8254 19.8311 23.1393 20.5085C22.4531 21.1859 21.5042 21.5839 20.5007 21.6152C20.0036 21.6009 19.5144 21.496 19.0612 21.3065C18.6081 21.117 18.1999 20.8466 17.8601 20.5109C17.5203 20.1752 17.2556 19.7808 17.0811 19.3503C16.9067 18.9199 16.826 18.4618 16.8436 18.0024Z" fill="#667DFF" stroke="#667DFF" stroke-width="2" mask="url(#path-1-inside-1_701_13)"/>
</svg>
