<svg width="96" height="96" viewBox="0 0 96 96" fill="none" xmlns="http://www.w3.org/2000/svg">
<path d="M45.4336 15.0411C41.1937 14.8173 36.4268 15.4671 31.7637 17.086C24.3537 19.657 16.3392 23.7008 10.5762 28.9688C3.7302 35.2388 2.63206 40.6956 3.08206 42.9786C4.68406 51.0756 16.1029 56.3577 20.6719 60.2637C20.4469 60.3867 20.2371 60.4926 20.0391 60.6036C17.7471 61.7166 9.24444 66.089 7.06644 70.793C4.60644 76.127 7.47345 79.9449 9.35745 80.4669C15.2345 82.0629 21.0503 79.2736 24.2813 74.5606C27.5153 69.8446 27.1258 63.6898 25.6348 60.8848C25.6198 60.8428 25.5912 60.8155 25.5762 60.7735C26.1672 60.4285 26.769 60.0814 27.375 59.7364C28.542 59.0614 29.6807 58.4453 30.6797 57.9083C30.1157 59.3933 29.7091 61.1846 29.4961 63.7676C29.2441 66.7916 30.5207 70.7042 32.1797 72.2462C32.9117 72.9212 33.7958 72.9376 34.3418 72.9376C36.2828 72.9376 37.1551 71.3701 38.1211 69.4981C39.3151 67.2151 40.3711 64.5645 40.3711 64.5645C40.3711 64.5645 39.053 71.7364 42.668 71.7364C43.988 71.7364 45.3114 70.0747 45.9024 69.2227V69.2344C45.9024 69.2344 45.9241 69.1814 45.9961 69.0704C46.1371 68.8634 46.2071 68.7423 46.2071 68.7423V68.7012C46.7411 67.8072 47.912 65.76 49.67 62.379C51.947 58.008 54.1231 52.5469 54.1231 52.5469C54.3331 53.7469 54.6241 54.9309 54.9961 56.0919C55.3891 57.3969 56.2228 58.8279 56.8828 60.2169C56.3488 60.9309 56.0215 61.3419 56.0215 61.3419C56.0215 61.3539 56.0301 61.3652 56.0391 61.3712C55.6161 61.9202 55.1366 62.509 54.6446 63.088C52.8446 65.179 50.7048 67.5748 50.4258 68.2618C50.0868 69.0718 50.1734 69.6746 50.8184 70.1426C51.2954 70.4996 52.1454 70.5543 53.0274 70.4883C54.6444 70.3773 55.7831 69.9902 56.3321 69.7442C57.3431 69.3902 58.298 68.9031 59.168 68.2911C60.926 67.0251 61.9975 65.2094 61.8985 62.8184C61.8415 61.4984 61.4012 60.1755 60.8672 58.9395C61.0232 58.7205 61.1947 58.488 61.3477 58.254C64.1317 54.282 66.2813 49.9219 66.2813 49.9219C66.4913 51.1219 66.7823 52.3059 67.1543 53.4669C67.4933 54.5799 68.1538 55.8031 68.7598 57.0001C66.1468 59.0761 64.525 61.4835 63.961 63.0645C62.92 65.9925 63.7405 67.3084 65.2735 67.6114C65.9635 67.7494 66.9438 67.4368 67.6758 67.1368C68.7618 66.7828 69.784 66.2675 70.711 65.6075C72.469 64.3415 74.1707 62.5701 74.0567 60.1641C74.0147 59.0781 73.7088 57.9913 73.3008 56.9473C75.5088 56.0413 78.3743 55.5461 82.0313 55.9571C89.8613 56.8511 91.3956 61.635 91.1016 63.627C90.8076 65.622 89.1604 66.7365 88.6114 67.0665C88.0624 67.3965 87.8955 67.5206 87.9375 67.7696C88.0065 68.1266 88.2577 68.1114 88.7227 68.0274C89.3707 67.9164 92.8265 66.4061 92.9825 62.7071C93.2073 58.0354 88.6159 52.8969 80.4786 52.9337H80.4668C77.6419 52.9354 74.8568 53.5688 72.3223 54.7911C71.4913 53.1561 70.6322 51.7254 70.4942 50.6544C70.3262 49.4034 70.1468 48.6618 70.3418 47.1797C70.5398 45.6948 71.4232 43.5886 71.4082 43.4356C71.3932 43.2856 71.2105 42.5307 69.3985 42.5157C67.5865 42.5007 66.0218 42.8593 65.8418 43.3243C65.5208 44.1793 65.2717 45.0553 65.0977 45.9493C64.7737 47.5573 61.4706 53.3058 59.6016 56.3028C58.9836 55.1328 58.4646 54.1044 58.3535 53.2794C58.1856 52.0284 58.0003 51.2868 58.1953 49.8048C58.3933 48.3198 59.2826 46.2136 59.2676 46.0606C59.2526 45.9106 59.0698 45.1557 57.2578 45.1407C55.4458 45.1257 53.8783 45.4843 53.6953 45.9493C53.5123 46.4173 53.3142 47.5153 52.9512 48.5743C52.5852 49.6333 48.1852 59.2064 47.0332 61.6934C46.4422 62.9594 45.9344 63.9771 45.5684 64.6641C45.5114 64.7751 45.4723 64.8445 45.4454 64.8985C45.4873 64.8295 45.5157 64.7602 45.5157 64.7872C45.2067 65.3782 45.0235 65.7071 45.0235 65.7071V65.7188C44.7835 66.1598 44.5167 66.5626 44.3907 66.5626C44.3067 66.5626 44.1227 65.4072 44.4317 63.8262C45.0917 60.4992 46.6557 55.3285 46.6407 55.1485C46.6257 55.0525 46.9294 54.1578 45.6094 53.6778C44.3284 53.2248 43.8718 53.9825 43.7579 53.9825C43.6438 53.9825 43.5586 54.2579 43.5586 54.2579C43.5586 54.2579 44.9742 48.4278 40.8282 48.4278C38.2392 48.4278 34.6381 51.2048 32.8711 53.7188C31.7611 54.3098 29.3563 55.5912 26.8242 56.9532C25.8552 57.4752 24.86 58.0106 23.918 58.5176C23.849 58.4486 23.7908 58.3816 23.7188 58.3126C18.6848 53.0596 9.39219 49.346 9.78519 42.293C9.92619 39.722 10.8443 32.9754 27.6563 24.7794C41.4383 18.0714 52.4556 19.9109 54.3516 24.0059C57.0786 29.8499 48.4585 40.727 34.1485 42.293C28.6945 42.884 26.1819 40.5797 25.4649 39.8087C24.7209 38.9987 24.6043 38.9555 24.3223 39.1055C23.8573 39.3515 24.1543 40.0682 24.3223 40.4942C24.7453 41.5802 26.6252 43.2812 29.6192 44.2442C32.2502 45.0842 38.2914 45.7894 46.0254 42.8614C54.7134 39.5884 61.3502 30.6974 59.3672 23.0684C58.1053 18.2216 52.5001 15.414 45.4336 15.0411ZM40.8223 51.8673C41.0422 51.8835 41.2054 51.9647 41.2969 52.1192C41.7889 52.9322 39.5875 58.9167 39.0235 60.2637C38.1235 62.4237 36.2234 67.9258 35.0684 67.6348C34.0844 67.3888 33.4772 63.1934 34.8692 59.0684C35.5712 56.9924 37.0632 54.5178 37.9512 53.5548C39.0155 52.3893 40.1626 51.8186 40.8223 51.8673ZM70.043 58.6524C70.208 59.1324 70.2947 59.6367 70.3067 60.1407C70.2917 63.2367 68.03 64.3892 66.668 64.8692C66.386 64.6772 66.4233 64.0285 67.3653 62.0215C67.7313 61.2385 68.579 59.9184 70.043 58.6524ZM22.8106 62.0626C23.9776 66.2416 22.854 69.9281 20.127 72.8321C17.541 75.5951 13.9116 76.6408 12.3516 75.7618C10.6776 74.8108 11.3393 70.739 14.5313 67.793C16.4723 66.005 18.9777 64.3569 20.6367 63.3399C21.0177 63.1209 21.5614 62.7897 22.2364 62.3907C22.3504 62.3217 22.4063 62.2969 22.4063 62.2969C22.5323 62.2159 22.6696 62.1466 22.8106 62.0626ZM58.1426 62.543C58.1426 62.612 58.1602 62.6847 58.1602 62.7657C58.1422 65.2257 55.7191 66.8869 54.6211 67.5469H54.6328V67.5528C54.2518 67.7448 53.8985 67.8656 53.7305 67.7696C53.6045 67.7006 53.8887 67.4415 53.8887 67.4415C53.8887 67.4415 55.8423 65.3892 56.6133 64.4532C57.0633 63.9042 57.5816 63.257 58.1426 62.543Z" fill="#CC6699"/>
</svg>
