<?xml version="1.0" encoding="UTF-8" standalone="no"?>
<!DOCTYPE svg PUBLIC "-//W3C//DTD SVG 1.1//EN" "http://www.w3.org/Graphics/SVG/1.1/DTD/svg11.dtd">
<svg xmlns="http://www.w3.org/2000/svg" version="1.1" viewBox="0.00 0.00 412.00 512.00">
<g stroke-width="2.00" fill="none" stroke-linecap="butt">
<path stroke="#ffa3c2" vector-effect="non-scaling-stroke" d="
  M 306.10 4.92
  Q 305.05 33.80 303.67 62.50
  C 303.47 66.73 308.25 68.37 311.06 65.14
  Q 312.19 63.85 313.67 62.93
  Q 315.69 61.66 315.72 61.63
  Q 323.97 55.43 332.09 49.33
  A 0.64 0.62 44.9 0 1 332.86 49.34
  Q 342.08 56.65 351.39 63.93
  Q 352.22 64.58 353.31 64.73
  C 357.40 65.26 357.78 61.64 357.67 58.58
  Q 356.67 30.20 355.62 1.79"
/>
<path stroke="#ffa3c2" vector-effect="non-scaling-stroke" d="
  M 199.04 157.50
  Q 201.78 155.46 204.34 154.63
  Q 211.75 152.24 221.47 153.51
  C 239.31 155.85 241.04 178.50 240.64 192.24
  C 240.60 193.56 241.11 194.78 242.34 195.38
  C 247.94 198.13 255.32 198.37 261.62 198.54
  Q 284.35 199.12 307.89 194.48
  Q 312.18 193.64 316.26 191.62
  A 1.75 1.74 76.4 0 0 317.23 190.02
  C 316.80 170.97 314.18 151.66 305.47 134.46
  C 292.18 108.21 267.76 93.26 238.26 88.94
  C 189.61 81.81 131.13 93.78 113.64 146.57
  Q 108.19 163.05 108.90 182.05
  Q 109.95 209.85 126.90 231.50
  C 137.96 245.63 153.31 256.95 168.57 265.91
  Q 182.44 274.06 196.67 281.99
  Q 212.25 290.67 222.73 299.45
  C 233.85 308.77 239.91 321.11 235.93 335.98
  C 232.43 349.02 218.78 351.29 206.91 349.26
  Q 194.07 347.06 189.94 334.48
  C 186.79 324.89 186.45 314.08 186.78 304.17
  A 1.72 1.72 0.0 0 0 185.96 302.65
  Q 184.01 301.47 181.92 300.92
  Q 174.77 299.05 166.12 298.28
  C 149.97 296.85 132.70 296.57 116.44 299.24
  Q 112.43 299.90 108.80 301.62
  C 105.99 302.95 106.44 304.86 106.30 307.42
  C 105.41 323.88 106.60 340.30 111.76 355.91
  C 119.44 379.16 136.10 396.44 159.18 405.30
  Q 175.10 411.41 190.98 413.32
  C 223.02 417.16 256.19 413.97 283.10 397.12
  Q 303.15 384.56 313.40 363.38
  C 319.51 350.75 321.83 336.09 321.33 321.73
  Q 319.91 281.29 289.49 254.64
  C 271.59 238.95 249.81 227.93 228.66 216.86
  Q 214.31 209.35 204.06 200.79
  Q 195.56 193.69 192.44 184.54
  C 191.06 180.51 191.04 176.15 191.38 171.98
  Q 191.83 166.58 194.88 161.80
  Q 196.34 159.51 199.04 157.50"
/>
</g>
<path fill="#ff4785" d="
  M 382.88 0.00
  L 387.97 0.00
  Q 389.31 0.35 390.65 0.58
  C 399.80 2.16 406.88 9.02 409.96 17.58
  Q 411.43 21.64 411.42 29.18
  Q 411.25 260.02 411.30 485.18
  C 411.30 497.32 404.23 507.21 392.58 510.76
  Q 388.81 511.90 378.63 511.45
  Q 195.93 503.30 40.51 496.04
  Q 29.32 495.51 22.43 487.56
  C 16.85 481.12 16.10 475.07 15.79 466.79
  Q 8.06 258.25 0.47 59.07
  Q -0.02 46.36 0.71 42.81
  C 2.53 33.84 9.75 25.91 18.79 23.45
  Q 21.46 22.73 28.29 22.30
  Q 167.08 13.59 306.10 4.92
  Q 305.05 33.80 303.67 62.50
  C 303.47 66.73 308.25 68.37 311.06 65.14
  Q 312.19 63.85 313.67 62.93
  Q 315.69 61.66 315.72 61.63
  Q 323.97 55.43 332.09 49.33
  A 0.64 0.62 44.9 0 1 332.86 49.34
  Q 342.08 56.65 351.39 63.93
  Q 352.22 64.58 353.31 64.73
  C 357.40 65.26 357.78 61.64 357.67 58.58
  Q 356.67 30.20 355.62 1.79
  L 382.88 0.00
  Z
  M 199.04 157.50
  Q 201.78 155.46 204.34 154.63
  Q 211.75 152.24 221.47 153.51
  C 239.31 155.85 241.04 178.50 240.64 192.24
  C 240.60 193.56 241.11 194.78 242.34 195.38
  C 247.94 198.13 255.32 198.37 261.62 198.54
  Q 284.35 199.12 307.89 194.48
  Q 312.18 193.64 316.26 191.62
  A 1.75 1.74 76.4 0 0 317.23 190.02
  C 316.80 170.97 314.18 151.66 305.47 134.46
  C 292.18 108.21 267.76 93.26 238.26 88.94
  C 189.61 81.81 131.13 93.78 113.64 146.57
  Q 108.19 163.05 108.90 182.05
  Q 109.95 209.85 126.90 231.50
  C 137.96 245.63 153.31 256.95 168.57 265.91
  Q 182.44 274.06 196.67 281.99
  Q 212.25 290.67 222.73 299.45
  C 233.85 308.77 239.91 321.11 235.93 335.98
  C 232.43 349.02 218.78 351.29 206.91 349.26
  Q 194.07 347.06 189.94 334.48
  C 186.79 324.89 186.45 314.08 186.78 304.17
  A 1.72 1.72 0.0 0 0 185.96 302.65
  Q 184.01 301.47 181.92 300.92
  Q 174.77 299.05 166.12 298.28
  C 149.97 296.85 132.70 296.57 116.44 299.24
  Q 112.43 299.90 108.80 301.62
  C 105.99 302.95 106.44 304.86 106.30 307.42
  C 105.41 323.88 106.60 340.30 111.76 355.91
  C 119.44 379.16 136.10 396.44 159.18 405.30
  Q 175.10 411.41 190.98 413.32
  C 223.02 417.16 256.19 413.97 283.10 397.12
  Q 303.15 384.56 313.40 363.38
  C 319.51 350.75 321.83 336.09 321.33 321.73
  Q 319.91 281.29 289.49 254.64
  C 271.59 238.95 249.81 227.93 228.66 216.86
  Q 214.31 209.35 204.06 200.79
  Q 195.56 193.69 192.44 184.54
  C 191.06 180.51 191.04 176.15 191.38 171.98
  Q 191.83 166.58 194.88 161.80
  Q 196.34 159.51 199.04 157.50
  Z"
/>
<path fill="#ffffff" d="
  M 355.62 1.79
  Q 356.67 30.20 357.67 58.58
  C 357.78 61.64 357.40 65.26 353.31 64.73
  Q 352.22 64.58 351.39 63.93
  Q 342.08 56.65 332.86 49.34
  A 0.64 0.62 44.9 0 0 332.09 49.33
  Q 323.97 55.43 315.72 61.63
  Q 315.69 61.66 313.67 62.93
  Q 312.19 63.85 311.06 65.14
  C 308.25 68.37 303.47 66.73 303.67 62.50
  Q 305.05 33.80 306.10 4.92
  L 355.62 1.79
  Z"
/>
<path fill="#ffffff" d="
  M 194.88 161.80
  Q 191.83 166.58 191.38 171.98
  C 191.04 176.15 191.06 180.51 192.44 184.54
  Q 195.56 193.69 204.06 200.79
  Q 214.31 209.35 228.66 216.86
  C 249.81 227.93 271.59 238.95 289.49 254.64
  Q 319.91 281.29 321.33 321.73
  C 321.83 336.09 319.51 350.75 313.40 363.38
  Q 303.15 384.56 283.10 397.12
  C 256.19 413.97 223.02 417.16 190.98 413.32
  Q 175.10 411.41 159.18 405.30
  C 136.10 396.44 119.44 379.16 111.76 355.91
  C 106.60 340.30 105.41 323.88 106.30 307.42
  C 106.44 304.86 105.99 302.95 108.80 301.62
  Q 112.43 299.90 116.44 299.24
  C 132.70 296.57 149.97 296.85 166.12 298.28
  Q 174.77 299.05 181.92 300.92
  Q 184.01 301.47 185.96 302.65
  A 1.72 1.72 0.0 0 1 186.78 304.17
  C 186.45 314.08 186.79 324.89 189.94 334.48
  Q 194.07 347.06 206.91 349.26
  C 218.78 351.29 232.43 349.02 235.93 335.98
  C 239.91 321.11 233.85 308.77 222.73 299.45
  Q 212.25 290.67 196.67 281.99
  Q 182.44 274.06 168.57 265.91
  C 153.31 256.95 137.96 245.63 126.90 231.50
  Q 109.95 209.85 108.90 182.05
  Q 108.19 163.05 113.64 146.57
  C 131.13 93.78 189.61 81.81 238.26 88.94
  C 267.76 93.26 292.18 108.21 305.47 134.46
  C 314.18 151.66 316.80 170.97 317.23 190.02
  A 1.75 1.74 76.4 0 1 316.26 191.62
  Q 312.18 193.64 307.89 194.48
  Q 284.35 199.12 261.62 198.54
  C 255.32 198.37 247.94 198.13 242.34 195.38
  C 241.11 194.78 240.60 193.56 240.64 192.24
  C 241.04 178.50 239.31 155.85 221.47 153.51
  Q 211.75 152.24 204.34 154.63
  Q 201.78 155.46 199.04 157.50
  Q 196.34 159.51 194.88 161.80
  Z"
/>
</svg>
