<svg width="136" height="153" viewBox="0 0 136 153" fill="none" xmlns="http://www.w3.org/2000/svg">
<path d="M67.6155 0L135.231 38.2456V114.754L67.6155 153L-0.00012207 114.754V38.2456L67.6155 0Z" fill="white"/>
<path d="M123.158 112.116L69.8518 142.272V118.79L103.066 100.515L123.158 112.116ZM126.81 108.814V45.7585L107.311 57.0277V97.5622L126.81 108.814ZM11.8631 112.116L65.1694 142.272V118.79L31.9382 100.515L11.8631 112.116ZM8.21155 108.814V45.7585L27.71 57.0277V97.5622L8.21155 108.814ZM10.5003 41.6701L65.1694 10.7451V33.4409L30.1386 52.7122L29.859 52.8695L10.5003 41.6701ZM124.521 41.6701L69.8518 10.7451V33.4409L104.883 52.6948L105.162 52.852L124.521 41.6701Z" fill="#8ED6FB"/>
<path d="M65.1694 113.444L32.3925 95.4132V59.7184L65.1694 78.6403V113.444ZM69.8519 113.444L102.629 95.4306V59.7184L69.8519 78.6403V113.444ZM34.6114 55.5951L67.5106 37.5118L100.41 55.5951L67.5106 74.5869L34.6114 55.5951Z" fill="#1C78C0"/>
</svg>
